<svg width="118" height="118" viewBox="0 0 118 118" fill="none" xmlns="http://www.w3.org/2000/svg">
<g filter="url(#filter0_d_1022_212)">
<circle cx="59" cy="55" r="55" fill="#D9D9D9"/>
<circle cx="59" cy="55" r="53.5" stroke="black" stroke-width="3"/>
</g>
<circle cx="59.5" cy="56.5" r="30" fill="#D9D9D9" stroke="black" stroke-width="3"/>
<path d="M62.9756 45.8784C82.4779 89.6851 88.0635 73.9746 64.5224 69.6221C55.1855 69.6221 21.3353 94.1049 53.7376 47.1342C58.2309 39.3507 45.9357 30.8271 57.6162 33.9101C67.6061 31.7338 68.2208 32.6406 62.9756 45.8784Z" fill="url(#paint0_linear_1022_212)"/>
<mask id="path-5-outside-1_1022_212" maskUnits="userSpaceOnUse" x="90.4727" y="69" width="13" height="11" fill="black">
<rect fill="white" x="90.4727" y="69" width="13" height="11"/>
<path d="M91.4727 73.375V70.233H101.655V73.5142C101.655 74.5019 101.451 75.3471 101.043 76.0497C100.639 76.7524 100.057 77.291 99.298 77.6655C98.5423 78.04 97.6375 78.2273 96.5835 78.2273C95.5229 78.2273 94.6098 78.0384 93.8442 77.6605C93.0819 77.2827 92.4952 76.7325 92.0842 76.0099C91.6766 75.2874 91.4727 74.4091 91.4727 73.375ZM92.5665 71.4659V73.2955C92.5665 74.1373 92.7289 74.835 93.0537 75.3885C93.3785 75.942 93.8409 76.3546 94.4408 76.6264C95.0407 76.8982 95.7549 77.0341 96.5835 77.0341C97.4055 77.0341 98.1131 76.8999 98.7064 76.6314C99.303 76.3629 99.7604 75.9619 100.079 75.4283C100.4 74.8946 100.561 74.2301 100.561 73.4347V71.4659H92.5665Z"/>
</mask>
<path d="M91.4727 73.375V70.233H101.655V73.5142C101.655 74.5019 101.451 75.3471 101.043 76.0497C100.639 76.7524 100.057 77.291 99.298 77.6655C98.5423 78.04 97.6375 78.2273 96.5835 78.2273C95.5229 78.2273 94.6098 78.0384 93.8442 77.6605C93.0819 77.2827 92.4952 76.7325 92.0842 76.0099C91.6766 75.2874 91.4727 74.4091 91.4727 73.375ZM92.5665 71.4659V73.2955C92.5665 74.1373 92.7289 74.835 93.0537 75.3885C93.3785 75.942 93.8409 76.3546 94.4408 76.6264C95.0407 76.8982 95.7549 77.0341 96.5835 77.0341C97.4055 77.0341 98.1131 76.8999 98.7064 76.6314C99.303 76.3629 99.7604 75.9619 100.079 75.4283C100.4 74.8946 100.561 74.2301 100.561 73.4347V71.4659H92.5665Z" fill="black"/>
<path d="M91.4727 70.233V69.233H90.4727V70.233H91.4727ZM101.655 70.233H102.655V69.233H101.655V70.233ZM101.043 76.0497L100.178 75.5479L100.176 75.5509L101.043 76.0497ZM99.298 77.6655L98.8555 76.7687L98.8539 76.7695L99.298 77.6655ZM93.8442 77.6605L93.4001 78.5565L93.4016 78.5573L93.8442 77.6605ZM92.0842 76.0099L91.2133 76.5013L91.215 76.5044L92.0842 76.0099ZM92.5665 71.4659V70.4659H91.5665V71.4659H92.5665ZM93.0537 75.3885L93.9161 74.8824L93.0537 75.3885ZM98.7064 76.6314L98.296 75.7195L98.2941 75.7203L98.7064 76.6314ZM100.079 75.4283L99.222 74.9122L99.2196 74.9161L100.079 75.4283ZM100.561 71.4659H101.561V70.4659H100.561V71.4659ZM92.4727 73.375V70.233H90.4727V73.375H92.4727ZM91.4727 71.233H101.655V69.233H91.4727V71.233ZM100.655 70.233V73.5142H102.655V70.233H100.655ZM100.655 73.5142C100.655 74.3636 100.48 75.0274 100.178 75.5479L101.908 76.5516C102.421 75.6667 102.655 74.6402 102.655 73.5142H100.655ZM100.176 75.5509C99.8753 76.074 99.445 76.4778 98.8555 76.7687L99.7405 78.5622C100.669 78.1041 101.402 77.4307 101.91 76.5485L100.176 75.5509ZM98.8539 76.7695C98.2664 77.0607 97.521 77.2273 96.5835 77.2273V79.2273C97.754 79.2273 98.8182 79.0193 99.7421 78.5615L98.8539 76.7695ZM96.5835 77.2273C95.64 77.2273 94.8854 77.0592 94.2867 76.7638L93.4016 78.5573C94.3341 79.0175 95.4058 79.2273 96.5835 79.2273V77.2273ZM94.2883 76.7645C93.7 76.473 93.2635 76.0606 92.9534 75.5155L91.215 76.5044C91.727 77.4044 92.4637 78.0924 93.4001 78.5565L94.2883 76.7645ZM92.9552 75.5185C92.6505 74.9787 92.4727 74.2788 92.4727 73.375H90.4727C90.4727 74.5394 90.7026 75.5962 91.2133 76.5013L92.9552 75.5185ZM91.5665 71.4659V73.2955H93.5665V71.4659H91.5665ZM91.5665 73.2955C91.5665 74.2612 91.7525 75.1469 92.1912 75.8946L93.9161 74.8824C93.7053 74.523 93.5665 74.0134 93.5665 73.2955H91.5665ZM92.1912 75.8946C92.6235 76.6312 93.2453 77.1827 94.0281 77.5373L94.8534 75.7155C94.4364 75.5266 94.1335 75.2528 93.9161 74.8824L92.1912 75.8946ZM94.0281 77.5373C94.7866 77.8809 95.6482 78.0341 96.5835 78.0341V76.0341C95.8617 76.0341 95.2948 75.9155 94.8534 75.7155L94.0281 77.5373ZM96.5835 78.0341C97.5116 78.0341 98.3666 77.8828 99.1187 77.5425L98.2941 75.7203C97.8596 75.9169 97.2994 76.0341 96.5835 76.0341V78.0341ZM99.1167 77.5433C99.8898 77.1954 100.509 76.6598 100.937 75.9404L99.2196 74.9161C99.0122 75.264 98.7162 75.5304 98.296 75.7195L99.1167 77.5433ZM100.935 75.9443C101.373 75.2173 101.561 74.3624 101.561 73.4347H99.5608C99.5608 74.0978 99.427 74.572 99.222 74.9122L100.935 75.9443ZM101.561 73.4347V71.4659H99.5608V73.4347H101.561ZM100.561 70.4659H92.5665V72.4659H100.561V70.4659Z" fill="black" mask="url(#path-5-outside-1_1022_212)"/>
<mask id="path-7-outside-2_1022_212" maskUnits="userSpaceOnUse" x="82.5834" y="79.1383" width="17.2395" height="11.7994" fill="black">
<rect fill="white" x="82.5834" y="79.1383" width="17.2395" height="11.7994"/>
<path d="M87.8162 80.4967L97.426 83.8614L94.0328 88.9845L93.0005 88.623L95.7129 84.5279L92.4658 83.391L89.9291 87.2208L88.8968 86.8594L91.4335 83.0295L88.1677 81.886L85.4114 86.0475L84.3791 85.686L87.8162 80.4967Z"/>
</mask>
<path d="M87.8162 80.4967L97.426 83.8614L94.0328 88.9845L93.0005 88.623L95.7129 84.5279L92.4658 83.391L89.9291 87.2208L88.8968 86.8594L91.4335 83.0295L88.1677 81.886L85.4114 86.0475L84.3791 85.686L87.8162 80.4967Z" fill="black"/>
<path d="M87.8162 80.4967L88.3685 79.663L87.4246 79.3325L86.8724 80.1662L87.8162 80.4967ZM97.426 83.8614L98.3698 84.1919L98.9221 83.3582L97.9782 83.0277L97.426 83.8614ZM94.0328 88.9845L93.4806 89.8182L94.4244 90.1486L94.9766 89.3149L94.0328 88.9845ZM93.0005 88.623L92.0567 88.2925L91.5044 89.1262L92.4483 89.4567L93.0005 88.623ZM95.7129 84.5279L96.6567 84.8584L97.2089 84.0247L96.2651 83.6942L95.7129 84.5279ZM92.4658 83.391L93.018 82.5573L92.0742 82.2268L91.522 83.0605L92.4658 83.391ZM89.9291 87.2208L89.3769 88.0545L90.3207 88.385L90.8729 87.5513L89.9291 87.2208ZM88.8968 86.8594L87.953 86.5289L87.4008 87.3626L88.3446 87.6931L88.8968 86.8594ZM91.4335 83.0295L92.3773 83.36L92.9295 82.5263L91.9857 82.1958L91.4335 83.0295ZM88.1677 81.886L88.7199 81.0523L87.7761 80.7219L87.2239 81.5556L88.1677 81.886ZM85.4114 86.0475L84.8592 86.8812L85.803 87.2116L86.3552 86.3779L85.4114 86.0475ZM84.3791 85.686L83.4352 85.3556L82.883 86.1893L83.8269 86.5197L84.3791 85.686ZM87.264 81.3304L96.8738 84.6951L97.9782 83.0277L88.3685 79.663L87.264 81.3304ZM96.4822 83.531L93.089 88.654L94.9766 89.3149L98.3698 84.1919L96.4822 83.531ZM94.585 88.1507L93.5527 87.7893L92.4483 89.4567L93.4806 89.8182L94.585 88.1507ZM93.9443 88.9535L96.6567 84.8584L94.7691 84.1974L92.0567 88.2925L93.9443 88.9535ZM96.2651 83.6942L93.018 82.5573L91.9136 84.2247L95.1607 85.3616L96.2651 83.6942ZM91.522 83.0605L88.9853 86.8904L90.8729 87.5513L93.4096 83.7214L91.522 83.0605ZM90.4813 86.3871L89.449 86.0257L88.3446 87.6931L89.3769 88.0545L90.4813 86.3871ZM89.8406 87.1898L92.3773 83.36L90.4897 82.6991L87.953 86.5289L89.8406 87.1898ZM91.9857 82.1958L88.7199 81.0523L87.6155 82.7198L90.8813 83.8632L91.9857 82.1958ZM87.2239 81.5556L84.4675 85.717L86.3552 86.3779L89.1115 82.2165L87.2239 81.5556ZM85.9636 85.2138L84.9313 84.8523L83.8269 86.5197L84.8592 86.8812L85.9636 85.2138ZM85.3229 86.0165L88.7601 80.8271L86.8724 80.1662L83.4352 85.3556L85.3229 86.0165Z" fill="black" mask="url(#path-7-outside-2_1022_212)"/>
<mask id="path-9-outside-3_1022_212" maskUnits="userSpaceOnUse" x="56.3279" y="88.9271" width="14.7453" height="14.204" fill="black">
<rect fill="white" x="56.3279" y="88.9271" width="14.7453" height="14.204"/>
<path d="M61.3473 101.119L58.2978 91.4048L59.4748 91.2094L67.3427 97.9285L67.4408 97.9122L65.0464 90.2849L66.2627 90.083L69.3123 99.7974L68.1352 99.9927L60.2418 93.258L60.1437 93.2743L62.544 100.921L61.3473 101.119Z"/>
</mask>
<path d="M61.3473 101.119L58.2978 91.4048L59.4748 91.2094L67.3427 97.9285L67.4408 97.9122L65.0464 90.2849L66.2627 90.083L69.3123 99.7974L68.1352 99.9927L60.2418 93.258L60.1437 93.2743L62.544 100.921L61.3473 101.119Z" fill="black"/>
<path d="M61.3473 101.119L60.3608 101.283L60.6603 102.237L61.6468 102.073L61.3473 101.119ZM58.2978 91.4048L57.9982 90.4507L57.0117 90.6144L57.3112 91.5685L58.2978 91.4048ZM59.4748 91.2094L60.1145 90.531L59.6915 90.1697L59.1753 90.2554L59.4748 91.2094ZM67.3427 97.9285L66.703 98.6069L67.126 98.9682L67.6422 98.8826L67.3427 97.9285ZM67.4408 97.9122L67.7403 98.8663L68.7268 98.7026L68.4273 97.7485L67.4408 97.9122ZM65.0464 90.2849L64.7469 89.3308L63.7603 89.4945L64.0599 90.4486L65.0464 90.2849ZM66.2627 90.083L67.2492 89.9193L66.9497 88.9652L65.9632 89.1289L66.2627 90.083ZM69.3123 99.7974L69.6118 100.752L70.5983 100.588L70.2988 99.6337L69.3123 99.7974ZM68.1352 99.9927L67.4959 100.672L67.9189 101.032L68.4347 100.947L68.1352 99.9927ZM60.2418 93.258L60.881 92.5792L60.4581 92.2183L59.9423 92.3039L60.2418 93.258ZM60.1437 93.2743L59.8442 92.3202L58.8577 92.4839L59.1572 93.438L60.1437 93.2743ZM62.544 100.921L62.8435 101.875L63.8301 101.711L63.5305 100.757L62.544 100.921ZM62.3338 100.955L59.2843 91.2411L57.3112 91.5685L60.3608 101.283L62.3338 100.955ZM58.5973 92.3589L59.7743 92.1635L59.1753 90.2554L57.9982 90.4507L58.5973 92.3589ZM58.8352 91.8879L66.703 98.6069L67.9823 97.25L60.1145 90.531L58.8352 91.8879ZM67.6422 98.8826L67.7403 98.8663L67.1413 96.9581L67.0432 96.9744L67.6422 98.8826ZM68.4273 97.7485L66.0329 90.1212L64.0599 90.4486L66.4543 98.0759L68.4273 97.7485ZM65.3459 91.239L66.5622 91.0371L65.9632 89.1289L64.7469 89.3308L65.3459 91.239ZM65.2762 90.2467L68.3258 99.9611L70.2988 99.6337L67.2492 89.9193L65.2762 90.2467ZM69.0128 98.8433L67.8357 99.0387L68.4347 100.947L69.6118 100.752L69.0128 98.8433ZM68.7744 99.3139L60.881 92.5792L59.6025 93.9369L67.4959 100.672L68.7744 99.3139ZM59.9423 92.3039L59.8442 92.3202L60.4432 94.2284L60.5413 94.2121L59.9423 92.3039ZM59.1572 93.438L61.5575 101.084L63.5305 100.757L61.1302 93.1106L59.1572 93.438ZM62.2445 99.9665L61.0478 100.165L61.6468 102.073L62.8435 101.875L62.2445 99.9665Z" fill="black" mask="url(#path-9-outside-3_1022_212)"/>
<mask id="path-11-outside-4_1022_212" maskUnits="userSpaceOnUse" x="40.5496" y="87.8532" width="16.7183" height="14.5314" fill="black">
<rect fill="white" x="40.5496" y="87.8532" width="16.7183" height="14.5314"/>
<path d="M53.3671 90.3379L54.6423 90.5495L47.9045 99.6518L46.6489 99.4435L46.0103 89.117L47.2855 89.3287L47.7199 98.0043L47.7984 98.0173L53.3671 90.3379ZM51.705 94.0544L46.5651 93.2015L46.8927 92.1579L52.0326 93.0109L51.705 94.0544Z"/>
</mask>
<path d="M53.3671 90.3379L54.6423 90.5495L47.9045 99.6518L46.6489 99.4435L46.0103 89.117L47.2855 89.3287L47.7199 98.0043L47.7984 98.0173L53.3671 90.3379ZM51.705 94.0544L46.5651 93.2015L46.8927 92.1579L52.0326 93.0109L51.705 94.0544Z" fill="black"/>
<path d="M53.3671 90.3379L53.6666 89.3838L52.97 89.2682L52.5376 89.8644L53.3671 90.3379ZM54.6423 90.5495L55.4651 91.032L56.3549 89.8299L54.9418 89.5954L54.6423 90.5495ZM47.9045 99.6518L47.605 100.606L48.2936 100.72L48.7273 100.134L47.9045 99.6518ZM46.6489 99.4435L45.6196 99.6187L45.6607 100.283L46.3494 100.398L46.6489 99.4435ZM46.0103 89.117L46.3098 88.1629L44.8967 87.9284L44.981 89.2922L46.0103 89.117ZM47.2855 89.3287L48.3154 89.1638L48.2816 88.4902L47.585 88.3746L47.2855 89.3287ZM47.7199 98.0043L46.6901 98.1692L46.7238 98.8428L47.4204 98.9584L47.7199 98.0043ZM47.7984 98.0173L47.4989 98.9714L48.1955 99.087L48.6279 98.4908L47.7984 98.0173ZM51.705 94.0544L51.4055 95.0085L52.392 95.1722L52.6915 94.2181L51.705 94.0544ZM46.5651 93.2015L45.5786 93.0378L45.2791 93.9919L46.2656 94.1556L46.5651 93.2015ZM46.8927 92.1579L47.1922 91.2038L46.2057 91.0401L45.9062 91.9942L46.8927 92.1579ZM52.0326 93.0109L53.0191 93.1746L53.3186 92.2205L52.3321 92.0568L52.0326 93.0109ZM53.0676 91.292L54.3427 91.5036L54.9418 89.5954L53.6666 89.3838L53.0676 91.292ZM53.8194 90.067L47.0817 99.1693L48.7273 100.134L55.4651 91.032L53.8194 90.067ZM48.204 98.6978L46.9484 98.4894L46.3494 100.398L47.605 100.606L48.204 98.6978ZM47.6782 99.2683L47.0396 88.9419L44.981 89.2922L45.6196 99.6187L47.6782 99.2683ZM45.7108 90.0711L46.986 90.2827L47.585 88.3746L46.3098 88.1629L45.7108 90.0711ZM46.2556 89.4936L46.6901 98.1692L48.7498 97.8394L48.3154 89.1638L46.2556 89.4936ZM47.4204 98.9584L47.4989 98.9714L48.0979 97.0632L48.0194 97.0502L47.4204 98.9584ZM48.6279 98.4908L54.1966 90.8113L52.5376 89.8644L46.9689 97.5439L48.6279 98.4908ZM52.0045 93.1003L46.8646 92.2474L46.2656 94.1556L51.4055 95.0085L52.0045 93.1003ZM47.5516 93.3652L47.8792 92.3216L45.9062 91.9942L45.5786 93.0378L47.5516 93.3652ZM46.5932 93.112L51.7331 93.965L52.3321 92.0568L47.1922 91.2038L46.5932 93.112ZM51.0461 92.8472L50.7185 93.8907L52.6915 94.2181L53.0191 93.1746L51.0461 92.8472Z" fill="black" mask="url(#path-11-outside-4_1022_212)"/>
<mask id="path-13-outside-5_1022_212" maskUnits="userSpaceOnUse" x="23.903" y="82.5446" width="19.1228" height="14.2761" fill="black">
<rect fill="white" x="23.903" y="82.5446" width="19.1228" height="14.2761"/>
<path d="M38.502 86.5415L41.2202 88.1175L33.6961 94.9773L30.8575 93.3315C30.003 92.836 29.4225 92.2748 29.1159 91.6477C28.8068 91.0228 28.7707 90.3607 29.0076 89.6615C29.242 88.9645 29.7487 88.261 30.5275 87.5509C31.3113 86.8363 32.1495 86.3159 33.0422 85.9896C33.9324 85.6655 34.8418 85.5462 35.7706 85.6318C36.697 85.7195 37.6074 86.0228 38.502 86.5415ZM39.3453 88.2359L37.7626 87.3182C37.0343 86.896 36.3107 86.6554 35.5918 86.5966C34.873 86.5378 34.1743 86.6424 33.4959 86.9102C32.8175 87.1781 32.1721 87.5911 31.5598 88.1494C30.9524 88.7032 30.5456 89.2472 30.3394 89.7816C30.1308 90.3182 30.1397 90.8275 30.3662 91.3096C30.5903 91.7938 31.0464 92.2355 31.7345 92.6345L33.4377 93.622L39.3453 88.2359Z"/>
</mask>
<path d="M38.502 86.5415L41.2202 88.1175L33.6961 94.9773L30.8575 93.3315C30.003 92.836 29.4225 92.2748 29.1159 91.6477C28.8068 91.0228 28.7707 90.3607 29.0076 89.6615C29.242 88.9645 29.7487 88.261 30.5275 87.5509C31.3113 86.8363 32.1495 86.3159 33.0422 85.9896C33.9324 85.6655 34.8418 85.5462 35.7706 85.6318C36.697 85.7195 37.6074 86.0228 38.502 86.5415ZM39.3453 88.2359L37.7626 87.3182C37.0343 86.896 36.3107 86.6554 35.5918 86.5966C34.873 86.5378 34.1743 86.6424 33.4959 86.9102C32.8175 87.1781 32.1721 87.5911 31.5598 88.1494C30.9524 88.7032 30.5456 89.2472 30.3394 89.7816C30.1308 90.3182 30.1397 90.8275 30.3662 91.3096C30.5903 91.7938 31.0464 92.2355 31.7345 92.6345L33.4377 93.622L39.3453 88.2359Z" fill="black"/>
<path d="M41.2202 88.1175L42.0853 88.6191L42.8243 87.9454L41.9592 87.4438L41.2202 88.1175ZM33.6961 94.9773L32.9571 95.6511L33.8222 96.1527L34.5612 95.4789L33.6961 94.9773ZM29.1159 91.6477L30.1892 91.3166L30.1879 91.3139L29.1159 91.6477ZM29.0076 89.6615L30.1104 89.8132L30.1109 89.8117L29.0076 89.6615ZM33.0422 85.9896L32.5952 85.2409L32.5934 85.2416L33.0422 85.9896ZM35.7706 85.6318L35.9891 84.7985L35.9852 84.7981L35.7706 85.6318ZM39.3453 88.2359L40.2104 88.7375L40.9494 88.0638L40.0843 87.5622L39.3453 88.2359ZM35.5918 86.5966L35.3923 87.4316L35.5918 86.5966ZM30.3394 89.7816L31.4316 89.9626L31.4322 89.9608L30.3394 89.7816ZM30.3662 91.3096L31.4457 90.9913L31.444 90.9878L30.3662 91.3096ZM33.4377 93.622L32.6987 94.2957L33.5638 94.7973L34.3028 94.1236L33.4377 93.622ZM37.763 87.2152L40.4812 88.7912L41.9592 87.4438L39.241 85.8677L37.763 87.2152ZM40.3551 87.6159L32.831 94.4757L34.5612 95.4789L42.0853 88.6191L40.3551 87.6159ZM34.435 94.3036L31.5964 92.6577L30.1185 94.0052L32.9571 95.6511L34.435 94.3036ZM31.5964 92.6577C30.8616 92.2317 30.4163 91.7811 30.1892 91.3166L28.0426 91.9787C28.4287 92.7684 29.1444 93.4404 30.1185 94.0052L31.5964 92.6577ZM30.1879 91.3139C29.9578 90.8487 29.9264 90.3563 30.1104 89.8132L27.9048 89.5098C27.6151 90.3651 27.6559 91.1968 28.0439 91.9814L30.1879 91.3139ZM30.1109 89.8117C30.2932 89.2698 30.6999 88.6841 31.3926 88.0525L29.6624 87.0493C28.7975 87.8379 28.1909 88.6592 27.9043 89.5113L30.1109 89.8117ZM31.3926 88.0525C32.0899 87.4168 32.7929 86.9927 33.4909 86.7375L32.5934 85.2416C31.5062 85.639 30.5328 86.2558 29.6624 87.0493L31.3926 88.0525ZM33.4891 86.7382C34.176 86.4881 34.8554 86.4009 35.556 86.4654L35.9852 84.7981C34.8283 84.6916 33.6887 84.8429 32.5952 85.2409L33.4891 86.7382ZM35.5521 86.465C36.2443 86.5306 36.9811 86.7618 37.763 87.2152L39.241 85.8677C38.2337 85.2837 37.1496 84.9084 35.9891 84.7985L35.5521 86.465ZM40.0843 87.5622L38.5015 86.6445L37.0236 87.992L38.6063 88.9097L40.0843 87.5622ZM38.5015 86.6445C37.666 86.1601 36.7624 85.8411 35.7913 85.7617L35.3923 87.4316C35.859 87.4697 36.4025 87.6319 37.0236 87.992L38.5015 86.6445ZM35.7913 85.7617C34.8347 85.6834 33.8981 85.8258 33.0128 86.1753L33.9789 87.6451C34.4506 87.4589 34.9112 87.3922 35.3923 87.4316L35.7913 85.7617ZM33.0128 86.1753C32.1551 86.5139 31.3859 87.0176 30.6947 87.6478L32.4249 88.651C32.9583 88.1646 33.4798 87.8422 33.9789 87.6451L33.0128 86.1753ZM30.6947 87.6478C30.0088 88.273 29.5079 88.925 29.2466 89.6024L31.4322 89.9608C31.5832 89.5695 31.8959 89.1333 32.4249 88.651L30.6947 87.6478ZM29.2472 89.6007C28.9769 90.296 28.9831 90.9815 29.2885 91.6313L31.444 90.9878C31.2963 90.6735 31.2846 90.3404 31.4316 89.9626L29.2472 89.6007ZM29.2868 91.6278C29.5921 92.2876 30.193 92.8428 30.9956 93.3082L32.4735 91.9607C31.8998 91.6281 31.5885 91.3001 31.4456 90.9913L29.2868 91.6278ZM30.9956 93.3082L32.6987 94.2957L34.1767 92.9483L32.4735 91.9607L30.9956 93.3082ZM34.3028 94.1236L40.2104 88.7375L38.4802 87.7343L32.5726 93.1204L34.3028 94.1236Z" fill="black" mask="url(#path-13-outside-5_1022_212)"/>
<mask id="path-15-outside-6_1022_212" maskUnits="userSpaceOnUse" x="17.2692" y="77.6254" width="14.4785" height="7.63088" fill="black">
<rect fill="white" x="17.2692" y="77.6254" width="14.4785" height="7.63088"/>
<path d="M19.8324 82.5996L29.4421 79.2348L30.123 80.2627L20.5132 83.6275L19.8324 82.5996Z"/>
</mask>
<path d="M19.8324 82.5996L29.4421 79.2348L30.123 80.2627L20.5132 83.6275L19.8324 82.5996Z" fill="black"/>
<path d="M19.8324 82.5996L19.2802 81.7658L18.3363 82.0963L18.8885 82.93L19.8324 82.5996ZM29.4421 79.2348L30.386 78.9043L29.8338 78.0706L28.8899 78.4011L29.4421 79.2348ZM30.123 80.2627L30.6752 81.0964L31.619 80.766L31.0668 79.9323L30.123 80.2627ZM20.5132 83.6275L19.5694 83.9579L20.1216 84.7916L21.0654 84.4612L20.5132 83.6275ZM20.3846 83.4333L29.9944 80.0685L28.8899 78.4011L19.2802 81.7658L20.3846 83.4333ZM28.4983 79.5653L29.1792 80.5932L31.0668 79.9323L30.386 78.9043L28.4983 79.5653ZM29.5708 79.429L19.961 82.7938L21.0654 84.4612L30.6752 81.0964L29.5708 79.429ZM21.457 83.297L20.7762 82.2691L18.8885 82.93L19.5694 83.9579L21.457 83.297Z" fill="black" mask="url(#path-15-outside-6_1022_212)"/>
<mask id="path-17-outside-7_1022_212" maskUnits="userSpaceOnUse" x="14.6215" y="61.2667" width="13" height="13" fill="black">
<rect fill="white" x="14.6215" y="61.2667" width="13" height="13"/>
<path d="M26.6215 70.6161V71.9087L16.4397 68.1701V66.8973L26.6215 63.1587V64.4513L18.0505 67.4939V67.5735L26.6215 70.6161ZM22.6442 70.1388V64.9286H23.738V70.1388H22.6442Z"/>
</mask>
<path d="M26.6215 70.6161V71.9087L16.4397 68.1701V66.8973L26.6215 63.1587V64.4513L18.0505 67.4939V67.5735L26.6215 70.6161ZM22.6442 70.1388V64.9286H23.738V70.1388H22.6442Z" fill="black"/>
<path d="M26.6215 70.6161H27.6215V69.9099L26.956 69.6737L26.6215 70.6161ZM26.6215 71.9087L26.2768 72.8474L27.6215 73.3412V71.9087H26.6215ZM16.4397 68.1701H15.4397V68.8682L16.095 69.1088L16.4397 68.1701ZM16.4397 66.8973L16.095 65.9586L15.4397 66.1992V66.8973H16.4397ZM26.6215 63.1587H27.6215L27.6215 61.7262L26.2768 62.22L26.6215 63.1587ZM26.6215 64.4513L26.956 65.3937L27.6215 65.1575V64.4513H26.6215ZM18.0505 67.4939L17.7159 66.5516L17.0505 66.7878V67.4939H18.0505ZM18.0505 67.5735H17.0505V68.2796L17.7159 68.5159L18.0505 67.5735ZM22.6442 70.1388H21.6442V71.1388H22.6442V70.1388ZM22.6442 64.9286V63.9286H21.6442V64.9286H22.6442ZM23.738 64.9286H24.738V63.9286H23.738V64.9286ZM23.738 70.1388V71.1388H24.738V70.1388H23.738ZM25.6215 70.6161V71.9087H27.6215V70.6161H25.6215ZM26.9662 70.97L16.7844 67.2314L16.095 69.1088L26.2768 72.8474L26.9662 70.97ZM17.4397 68.1701V66.8973H15.4397L15.4397 68.1701H17.4397ZM16.7844 67.8361L26.9662 64.0974L26.2768 62.22L16.095 65.9586L16.7844 67.8361ZM25.6215 63.1587V64.4513H27.6215V63.1587H25.6215ZM26.287 63.5089L17.7159 66.5516L18.385 68.4363L26.956 65.3937L26.287 63.5089ZM17.0505 67.4939V67.5735H19.0505V67.4939H17.0505ZM17.7159 68.5159L26.287 71.5585L26.956 69.6737L18.385 66.6311L17.7159 68.5159ZM23.6442 70.1388V64.9286H21.6442V70.1388H23.6442ZM22.6442 65.9286H23.738V63.9286H22.6442V65.9286ZM22.738 64.9286V70.1388H24.738V64.9286H22.738ZM23.738 69.1388H22.6442V71.1388H23.738V69.1388Z" fill="black" mask="url(#path-17-outside-7_1022_212)"/>
<mask id="path-19-outside-8_1022_212" maskUnits="userSpaceOnUse" x="12" y="42.4079" width="13" height="9" fill="black">
<rect fill="white" x="12" y="42.4079" width="13" height="9"/>
<path d="M24 50.1749H13.8182V48.942H22.9062V44.209H24V50.1749Z"/>
</mask>
<path d="M24 50.1749H13.8182V48.942H22.9062V44.209H24V50.1749Z" fill="black"/>
<path d="M24 50.1749V51.1749H25V50.1749H24ZM13.8182 50.1749H12.8182V51.1749H13.8182V50.1749ZM13.8182 48.942V47.942H12.8182V48.942H13.8182ZM22.9062 48.942V49.942H23.9062V48.942H22.9062ZM22.9062 44.209V43.209H21.9062V44.209H22.9062ZM24 44.209H25V43.209H24V44.209ZM24 49.1749H13.8182V51.1749H24V49.1749ZM14.8182 50.1749V48.942H12.8182V50.1749H14.8182ZM13.8182 49.942H22.9062V47.942H13.8182V49.942ZM23.9062 48.942V44.209H21.9062V48.942H23.9062ZM22.9062 45.209H24V43.209H22.9062V45.209ZM23 44.209V50.1749H25V44.209H23Z" fill="black" mask="url(#path-19-outside-8_1022_212)"/>
<mask id="path-21-outside-9_1022_212" maskUnits="userSpaceOnUse" x="13.7331" y="30.4048" width="15.716" height="11.9006" fill="black">
<rect fill="white" x="13.7331" y="30.4048" width="15.716" height="11.9006"/>
<path d="M25.731 40.8844L15.922 38.1544L18.1014 32.409L19.1551 32.7022L17.413 37.2949L20.7274 38.2173L22.3566 33.9222L23.4103 34.2155L21.7811 38.5106L25.1146 39.4384L26.8849 34.7714L27.9386 35.0646L25.731 40.8844Z"/>
</mask>
<path d="M25.731 40.8844L15.922 38.1544L18.1014 32.409L19.1551 32.7022L17.413 37.2949L20.7274 38.2173L22.3566 33.9222L23.4103 34.2155L21.7811 38.5106L25.1146 39.4384L26.8849 34.7714L27.9386 35.0646L25.731 40.8844Z" fill="black"/>
<path d="M25.731 40.8844L25.3763 41.8194L26.3397 42.0876L26.6944 41.1526L25.731 40.8844ZM15.922 38.1544L14.9586 37.8863L14.604 38.8213L15.5673 39.0894L15.922 38.1544ZM18.1014 32.409L18.456 31.474L17.4927 31.2059L17.138 32.1408L18.1014 32.409ZM19.1551 32.7022L20.1185 32.9704L20.4731 32.0354L19.5097 31.7672L19.1551 32.7022ZM17.413 37.2949L16.4496 37.0267L16.0949 37.9617L17.0583 38.2299L17.413 37.2949ZM20.7274 38.2173L20.3727 39.1523L21.3361 39.4204L21.6907 38.4854L20.7274 38.2173ZM22.3566 33.9222L22.7113 32.9872L21.7479 32.7191L21.3932 33.6541L22.3566 33.9222ZM23.4103 34.2155L24.3737 34.4836L24.7283 33.5486L23.765 33.2805L23.4103 34.2155ZM21.7811 38.5106L20.8177 38.2425L20.463 39.1774L21.4264 39.4456L21.7811 38.5106ZM25.1146 39.4384L24.7599 40.3734L25.7233 40.6415L26.078 39.7065L25.1146 39.4384ZM26.8849 34.7714L27.2395 33.8364L26.2762 33.5682L25.9215 34.5032L26.8849 34.7714ZM27.9386 35.0646L28.902 35.3328L29.2566 34.3978L28.2932 34.1296L27.9386 35.0646ZM26.0857 39.9494L16.2767 37.2194L15.5673 39.0894L25.3763 41.8194L26.0857 39.9494ZM16.8854 38.4225L19.0648 32.6771L17.138 32.1408L14.9586 37.8863L16.8854 38.4225ZM17.7467 33.344L18.8004 33.6372L19.5097 31.7672L18.456 31.474L17.7467 33.344ZM18.1917 32.4341L16.4496 37.0267L18.3764 37.563L20.1185 32.9704L18.1917 32.4341ZM17.0583 38.2299L20.3727 39.1523L21.082 37.2823L17.7677 36.3599L17.0583 38.2299ZM21.6907 38.4854L23.32 34.1903L21.3932 33.6541L19.764 37.9492L21.6907 38.4854ZM22.0019 34.8572L23.0556 35.1504L23.765 33.2805L22.7113 32.9872L22.0019 34.8572ZM22.4469 33.9473L20.8177 38.2425L22.7444 38.7787L24.3737 34.4836L22.4469 33.9473ZM21.4264 39.4456L24.7599 40.3734L25.4692 38.5034L22.1357 37.5756L21.4264 39.4456ZM26.078 39.7065L27.8483 35.0395L25.9215 34.5032L24.1512 39.1702L26.078 39.7065ZM26.5302 35.7064L27.5839 35.9996L28.2932 34.1296L27.2395 33.8364L26.5302 35.7064ZM26.9752 34.7965L24.7676 40.6163L26.6944 41.1526L28.902 35.3328L26.9752 34.7965Z" fill="black" mask="url(#path-21-outside-9_1022_212)"/>
<mask id="path-23-outside-10_1022_212" maskUnits="userSpaceOnUse" x="29.8539" y="12.1689" width="17.7481" height="15.7262" fill="black">
<rect fill="white" x="29.8539" y="12.1689" width="17.7481" height="15.7262"/>
<path d="M41.3305 24.8208L38.6629 26.481L32.0768 18.7161L34.8626 16.9824C35.7012 16.4605 36.5506 16.1694 37.4109 16.109C38.269 16.0461 39.1025 16.2052 39.9114 16.5861C40.7182 16.9645 41.4625 17.5556 42.1443 18.3594C42.8303 19.1682 43.2606 19.9644 43.435 20.7479C43.6073 21.5289 43.5197 22.267 43.1721 22.9622C42.8223 23.6549 42.2085 24.2744 41.3305 24.8208ZM39.0022 24.9954L40.5555 24.0287C41.2702 23.5839 41.7575 23.0914 42.0174 22.5512C42.2772 22.0111 42.3285 21.4404 42.1712 20.8393C42.0138 20.2382 41.6672 19.6217 41.1312 18.9898C40.5995 18.363 40.0279 17.8942 39.4162 17.5837C38.8023 17.2705 38.166 17.1336 37.5071 17.1729C36.8461 17.2097 36.1779 17.4382 35.5026 17.8585L33.8311 18.8988L39.0022 24.9954Z"/>
</mask>
<path d="M41.3305 24.8208L38.6629 26.481L32.0768 18.7161L34.8626 16.9824C35.7012 16.4605 36.5506 16.1694 37.4109 16.109C38.269 16.0461 39.1025 16.2052 39.9114 16.5861C40.7182 16.9645 41.4625 17.5556 42.1443 18.3594C42.8303 19.1682 43.2606 19.9644 43.435 20.7479C43.6073 21.5289 43.5197 22.267 43.1721 22.9622C42.8223 23.6549 42.2085 24.2744 41.3305 24.8208ZM39.0022 24.9954L40.5555 24.0287C41.2702 23.5839 41.7575 23.0914 42.0174 22.5512C42.2772 22.0111 42.3285 21.4404 42.1712 20.8393C42.0138 20.2382 41.6672 19.6217 41.1312 18.9898C40.5995 18.363 40.0279 17.8942 39.4162 17.5837C38.8023 17.2705 38.166 17.1336 37.5071 17.1729C36.8461 17.2097 36.1779 17.4382 35.5026 17.8585L33.8311 18.8988L39.0022 24.9954Z" fill="black"/>
<path d="M38.6629 26.481L37.8139 27.0093L38.4607 27.772L39.3097 27.2436L38.6629 26.481ZM32.0768 18.7161L31.43 17.9535L30.581 18.4819L31.2278 19.2445L32.0768 18.7161ZM37.4109 16.109L37.5443 17.0338L37.548 17.0336L37.4109 16.109ZM39.9114 16.5861L39.4363 17.3974L39.438 17.3982L39.9114 16.5861ZM43.435 20.7479L44.483 20.6132L44.4826 20.6116L43.435 20.7479ZM43.1721 22.9622L44.1526 23.3668L44.1541 23.3638L43.1721 22.9622ZM39.0022 24.9954L38.1532 25.5238L38.8 26.2864L39.649 25.758L39.0022 24.9954ZM42.0174 22.5512L41.0298 22.1609L42.0174 22.5512ZM39.4162 17.5837L38.9074 18.3784L38.9093 18.3794L39.4162 17.5837ZM37.5071 17.1729L37.623 18.0988L37.6279 18.0985L37.5071 17.1729ZM33.8311 18.8988L33.1842 18.1361L32.3352 18.6645L32.9821 19.4271L33.8311 18.8988ZM40.6837 24.0582L38.016 25.7183L39.3097 27.2436L41.9774 25.5834L40.6837 24.0582ZM39.5119 25.9526L32.9258 18.1877L31.2278 19.2445L37.8139 27.0093L39.5119 25.9526ZM32.7237 19.4787L35.5095 17.745L34.2158 16.2198L31.43 17.9535L32.7237 19.4787ZM35.5095 17.745C36.2306 17.2962 36.9071 17.0785 37.5443 17.0338L37.2774 15.1842C36.1941 15.2602 35.1718 15.6248 34.2158 16.2198L35.5095 17.745ZM37.548 17.0336C38.1868 16.9867 38.808 17.1015 39.4363 17.3974L40.3866 15.7748C39.397 15.3088 38.3511 15.1055 37.2737 15.1845L37.548 17.0336ZM39.438 17.3982C40.0652 17.6924 40.6888 18.1728 41.2952 18.8877L42.9933 17.831C42.2361 16.9384 41.3712 16.2366 40.3849 15.774L39.438 17.3982ZM41.2952 18.8877C41.9055 19.6073 42.251 20.2715 42.3874 20.8842L44.4826 20.6116C44.2701 19.6573 43.7551 18.7292 42.9933 17.831L41.2952 18.8877ZM42.3871 20.8827C42.52 21.4853 42.4523 22.0361 42.1901 22.5606L44.1541 23.3638C44.5871 22.4979 44.6946 21.5725 44.483 20.6132L42.3871 20.8827ZM42.1915 22.5577C41.9302 23.0752 41.451 23.5806 40.6837 24.0582L41.9774 25.5834C42.9659 24.9682 43.7145 24.2345 44.1526 23.3667L42.1915 22.5577ZM39.649 25.758L41.2024 24.7913L39.9087 23.2661L38.3554 24.2328L39.649 25.758ZM41.2024 24.7913C42.0223 24.281 42.654 23.6712 43.0049 22.9415L41.0298 22.1609C40.8611 22.5116 40.5182 22.8867 39.9087 23.2661L41.2024 24.7913ZM43.0049 22.9415C43.3507 22.2227 43.4167 21.4571 43.2114 20.6727L41.1309 21.0059C41.2402 21.4238 41.2037 21.7994 41.0298 22.1609L43.0049 22.9415ZM43.2114 20.6727C43.0126 19.9128 42.5853 19.1748 41.9802 18.4614L40.2822 19.5182C40.7492 20.0687 41.0151 20.5637 41.1309 21.0059L43.2114 20.6727ZM41.9802 18.4614C41.3799 17.7537 40.6984 17.1816 39.923 16.7879L38.9093 18.3794C39.3573 18.6069 39.8192 18.9723 40.2822 19.5182L41.9802 18.4614ZM39.925 16.7889C39.1296 16.3831 38.2745 16.1943 37.3864 16.2473L37.6279 18.0985C38.0574 18.0729 38.4751 18.1579 38.9074 18.3784L39.925 16.7889ZM37.3912 16.247C36.4906 16.2971 35.6434 16.6057 34.8557 17.0959L36.1494 18.6211C36.7125 18.2707 37.2016 18.1223 37.623 18.0988L37.3912 16.247ZM34.8557 17.0959L33.1842 18.1361L34.4779 19.6614L36.1494 18.6211L34.8557 17.0959ZM32.9821 19.4271L38.1532 25.5238L39.8512 24.467L34.6801 18.3704L32.9821 19.4271Z" fill="black" mask="url(#path-23-outside-10_1022_212)"/>
<mask id="path-25-outside-11_1022_212" maskUnits="userSpaceOnUse" x="43.2862" y="8.56566" width="15.2079" height="15.1043" fill="black">
<rect fill="white" x="43.2862" y="8.56566" width="15.2079" height="15.1043"/>
<path d="M48.73 22.4044L45.1189 12.8845L48.4333 11.962C49.1996 11.7487 49.8768 11.7007 50.4649 11.818C51.0519 11.9321 51.5469 12.1763 51.9501 12.5506C52.3533 12.9249 52.6613 13.3925 52.8741 13.9534C53.0869 14.5143 53.1574 15.0446 53.0857 15.5442C53.014 16.0438 52.7809 16.4856 52.3864 16.8695C51.9907 17.2502 51.4129 17.5464 50.6529 17.7579L47.9708 18.5044L47.5758 17.4631L50.2197 16.7273C50.7433 16.5816 51.1366 16.3899 51.3995 16.1523C51.6655 15.9138 51.8187 15.6382 51.8589 15.3255C51.9012 15.0088 51.85 14.6599 51.7054 14.2787C51.5609 13.8975 51.3611 13.5848 51.106 13.3406C50.851 13.0964 50.5329 12.9417 50.1516 12.8765C49.7691 12.8082 49.3129 12.8478 48.7828 12.9953L46.6946 13.5765L49.9178 22.0738L48.73 22.4044ZM51.7249 16.8428L55.7611 20.4475L54.3817 20.8314L50.3839 17.2161L51.7249 16.8428Z"/>
</mask>
<path d="M48.73 22.4044L45.1189 12.8845L48.4333 11.962C49.1996 11.7487 49.8768 11.7007 50.4649 11.818C51.0519 11.9321 51.5469 12.1763 51.9501 12.5506C52.3533 12.9249 52.6613 13.3925 52.8741 13.9534C53.0869 14.5143 53.1574 15.0446 53.0857 15.5442C53.014 16.0438 52.7809 16.4856 52.3864 16.8695C51.9907 17.2502 51.4129 17.5464 50.6529 17.7579L47.9708 18.5044L47.5758 17.4631L50.2197 16.7273C50.7433 16.5816 51.1366 16.3899 51.3995 16.1523C51.6655 15.9138 51.8187 15.6382 51.8589 15.3255C51.9012 15.0088 51.85 14.6599 51.7054 14.2787C51.5609 13.8975 51.3611 13.5848 51.106 13.3406C50.851 13.0964 50.5329 12.9417 50.1516 12.8765C49.7691 12.8082 49.3129 12.8478 48.7828 12.9953L46.6946 13.5765L49.9178 22.0738L48.73 22.4044ZM51.7249 16.8428L55.7611 20.4475L54.3817 20.8314L50.3839 17.2161L51.7249 16.8428Z" fill="black"/>
<path d="M48.73 22.4044L47.7666 22.6725L48.1213 23.6075L49.0847 23.3394L48.73 22.4044ZM45.1189 12.8845L44.7642 11.9495L43.8008 12.2176L44.1555 13.1526L45.1189 12.8845ZM50.4649 11.818L50.3252 12.7693L50.3303 12.7703L50.4649 11.818ZM51.9501 12.5506L51.2597 13.2205L51.2597 13.2205L51.9501 12.5506ZM53.0857 15.5442L52.0682 15.3443L52.0682 15.3443L53.0857 15.5442ZM52.3864 16.8695L53.1435 17.5772L53.147 17.5738L52.3864 16.8695ZM47.9708 18.5044L47.0074 18.7725L47.3621 19.7075L48.3255 19.4394L47.9708 18.5044ZM47.5758 17.4631L47.2212 16.5281L46.2578 16.7963L46.6124 17.7313L47.5758 17.4631ZM51.3995 16.1523L50.6656 15.4229L50.6628 15.4254L51.3995 16.1523ZM51.8589 15.3255L50.8403 15.1344L50.8397 15.1385L51.8589 15.3255ZM51.106 13.3406L51.8091 12.6826L51.106 13.3406ZM50.1516 12.8765L50.0339 13.832L50.042 13.8334L50.1516 12.8765ZM46.6946 13.5765L46.3399 12.6415L45.3766 12.9097L45.7312 13.8447L46.6946 13.5765ZM49.9178 22.0738L50.2725 23.0088L51.2359 22.7407L50.8812 21.8057L49.9178 22.0738ZM51.7249 16.8428L52.3995 16.1585L51.941 15.749L51.3703 15.9078L51.7249 16.8428ZM55.7611 20.4475L56.1157 21.3825L57.742 20.9299L56.4356 19.7631L55.7611 20.4475ZM54.3817 20.8314L53.702 21.5112L54.1613 21.9265L54.7363 21.7664L54.3817 20.8314ZM50.3839 17.2161L50.0292 16.2811L48.4153 16.7303L49.7042 17.8958L50.3839 17.2161ZM49.6934 22.1363L46.0823 12.6163L44.1555 13.1526L47.7666 22.6725L49.6934 22.1363ZM45.4735 13.8195L48.7879 12.897L48.0786 11.027L44.7642 11.9495L45.4735 13.8195ZM48.7879 12.897C49.4527 12.712 49.9545 12.6954 50.3252 12.7693L50.6047 10.8667C49.7991 10.706 48.9465 10.7855 48.0786 11.027L48.7879 12.897ZM50.3303 12.7703C50.7289 12.8478 51.0247 13.0024 51.2597 13.2205L52.6406 11.8808C52.0692 11.3503 51.3748 11.0164 50.5995 10.8656L50.3303 12.7703ZM51.2597 13.2205C51.5255 13.4673 51.7475 13.7913 51.9107 14.2216L53.8375 13.6853C53.5752 12.9938 53.1812 12.3826 52.6406 11.8808L51.2597 13.2205ZM51.9107 14.2216C52.074 14.6521 52.1147 15.0207 52.0682 15.3443L54.1031 15.7441C54.2001 15.0685 54.0997 14.3765 53.8375 13.6853L51.9107 14.2216ZM52.0682 15.3443C52.0267 15.6338 51.8938 15.9042 51.6257 16.1651L53.147 17.5738C53.6679 17.0669 54.0012 16.4539 54.1031 15.7441L52.0682 15.3443ZM51.6292 16.1617C51.3783 16.4032 50.96 16.6387 50.2983 16.8229L51.0076 18.6929C51.8657 18.4541 52.6031 18.0973 53.1435 17.5772L51.6292 16.1617ZM50.2983 16.8229L47.6161 17.5694L48.3255 19.4394L51.0076 18.6929L50.2983 16.8229ZM48.9342 18.2363L48.5392 17.195L46.6124 17.7313L47.0074 18.7725L48.9342 18.2363ZM47.9305 18.3981L50.5743 17.6623L49.865 15.7923L47.2212 16.5281L47.9305 18.3981ZM50.5743 17.6623C51.1789 17.494 51.7273 17.2486 52.1361 16.8792L50.6628 15.4254C50.5458 15.5311 50.3077 15.6691 49.865 15.7923L50.5743 17.6623ZM52.1333 16.8817C52.5356 16.521 52.8074 16.0625 52.8782 15.5124L50.8397 15.1385C50.83 15.2138 50.7955 15.3065 50.6656 15.4229L52.1333 16.8817ZM52.8776 15.5166C52.9443 15.0167 52.8574 14.5076 52.6688 14.0106L50.7421 14.5468C50.8427 14.8121 50.8581 15.0009 50.8403 15.1344L52.8776 15.5166ZM52.6688 14.0106C52.4799 13.5124 52.2009 13.0578 51.8091 12.6826L50.403 13.9986C50.5212 14.1118 50.6419 14.2826 50.7421 14.5468L52.6688 14.0106ZM51.8091 12.6826C51.3755 12.2674 50.8422 12.0189 50.2612 11.9196L50.042 13.8334C50.2235 13.8644 50.3266 13.9254 50.403 13.9986L51.8091 12.6826ZM50.2692 11.921C49.6701 11.814 49.044 11.8889 48.4282 12.0603L49.1375 13.9303C49.5818 13.8067 49.8682 13.8024 50.0339 13.832L50.2692 11.921ZM48.4282 12.0603L46.3399 12.6415L47.0493 14.5115L49.1375 13.9303L48.4282 12.0603ZM45.7312 13.8447L48.9544 22.3419L50.8812 21.8057L47.658 13.3084L45.7312 13.8447ZM49.5632 21.1388L48.3753 21.4694L49.0847 23.3394L50.2725 23.0088L49.5632 21.1388ZM51.0504 17.5272L55.0866 21.1319L56.4356 19.7631L52.3995 16.1585L51.0504 17.5272ZM55.4064 19.5125L54.027 19.8964L54.7363 21.7664L56.1157 21.3825L55.4064 19.5125ZM55.0614 20.1517L51.0636 16.5364L49.7042 17.8958L53.702 21.5112L55.0614 20.1517ZM50.7385 18.1511L52.0796 17.7778L51.3703 15.9078L50.0292 16.2811L50.7385 18.1511Z" fill="black" mask="url(#path-25-outside-11_1022_212)"/>
<mask id="path-27-outside-12_1022_212" maskUnits="userSpaceOnUse" x="57.9263" y="9" width="9" height="13" fill="black">
<rect fill="white" x="57.9263" y="9" width="9" height="13"/>
<path d="M59.1592 21V10.8182H65.3041V11.9119H60.3922V15.3523H64.9859V16.446H60.3922V19.9062H65.3837V21H59.1592Z"/>
</mask>
<path d="M59.1592 21V10.8182H65.3041V11.9119H60.3922V15.3523H64.9859V16.446H60.3922V19.9062H65.3837V21H59.1592Z" fill="black"/>
<path d="M59.1592 21H58.1592V22H59.1592V21ZM59.1592 10.8182V9.81818H58.1592V10.8182H59.1592ZM65.3041 10.8182H66.3041V9.81818H65.3041V10.8182ZM65.3041 11.9119V12.9119H66.3041V11.9119H65.3041ZM60.3922 11.9119V10.9119H59.3922V11.9119H60.3922ZM60.3922 15.3523H59.3922V16.3523H60.3922V15.3523ZM64.9859 15.3523H65.9859V14.3523H64.9859V15.3523ZM64.9859 16.446V17.446H65.9859V16.446H64.9859ZM60.3922 16.446V15.446H59.3922V16.446H60.3922ZM60.3922 19.9062H59.3922V20.9062H60.3922V19.9062ZM65.3837 19.9062H66.3837V18.9062H65.3837V19.9062ZM65.3837 21V22H66.3837V21H65.3837ZM60.1592 21V10.8182H58.1592V21H60.1592ZM59.1592 11.8182H65.3041V9.81818H59.1592V11.8182ZM64.3041 10.8182V11.9119H66.3041V10.8182H64.3041ZM65.3041 10.9119H60.3922V12.9119H65.3041V10.9119ZM59.3922 11.9119V15.3523H61.3922V11.9119H59.3922ZM60.3922 16.3523H64.9859V14.3523H60.3922V16.3523ZM63.9859 15.3523V16.446H65.9859V15.3523H63.9859ZM64.9859 15.446H60.3922V17.446H64.9859V15.446ZM59.3922 16.446V19.9062H61.3922V16.446H59.3922ZM60.3922 20.9062H65.3837V18.9062H60.3922V20.9062ZM64.3837 19.9062V21H66.3837V19.9062H64.3837ZM65.3837 20H59.1592V22H65.3837V20Z" fill="black" mask="url(#path-27-outside-12_1022_212)"/>
<mask id="path-29-outside-13_1022_212" maskUnits="userSpaceOnUse" x="66.8406" y="10.1492" width="15.5625" height="16.0393" fill="black">
<rect fill="white" x="66.8406" y="10.1492" width="15.5625" height="16.0393"/>
<path d="M77.7738 16.3208C77.895 15.8338 77.8006 15.4033 77.4906 15.0292C77.1807 14.6551 76.7287 14.3855 76.1348 14.2202C75.7006 14.0993 75.2947 14.0617 74.9173 14.1074C74.5431 14.154 74.2197 14.2713 73.9472 14.4593C73.6779 14.6481 73.4856 14.8944 73.3704 15.1981C73.274 15.4522 73.2534 15.688 73.3086 15.9055C73.3682 16.1208 73.474 16.3164 73.6261 16.4924C73.7794 16.6652 73.9499 16.8206 74.1377 16.9585C74.3266 17.0933 74.5032 17.2093 74.6676 17.3064L75.5651 17.844C75.7958 17.9802 76.0459 18.1491 76.3153 18.3509C76.588 18.5535 76.8303 18.794 77.0425 19.0723C77.259 19.3484 77.4033 19.6661 77.4753 20.0253C77.5473 20.3845 77.4987 20.7873 77.3294 21.2335C77.1343 21.748 76.819 22.1741 76.3837 22.5121C75.9516 22.8509 75.4241 23.069 74.8012 23.1663C74.1815 23.2644 73.4948 23.2087 72.7413 22.9989C72.0388 22.8034 71.4723 22.5241 71.0417 22.161C70.6142 21.7988 70.3283 21.38 70.1838 20.9047C70.0425 20.4303 70.0515 19.9274 70.2106 19.3961L71.4368 19.7374C71.3323 20.1058 71.344 20.4379 71.4718 20.7339C71.604 21.0276 71.8159 21.2785 72.1077 21.4864C72.4039 21.6922 72.7467 21.8493 73.1362 21.9577C73.5897 22.0839 74.0238 22.1259 74.4387 22.0838C74.8548 22.0386 75.2169 21.9167 75.5252 21.7181C75.8347 21.5165 76.0553 21.2421 76.1869 20.895C76.3068 20.5789 76.3134 20.2964 76.2066 20.0474C76.0999 19.7984 75.9215 19.5706 75.6716 19.364C75.4217 19.1574 75.1419 18.9596 74.8323 18.7707L73.7523 18.1001C73.0671 17.673 72.5762 17.1989 72.2796 16.6778C71.9831 16.1567 71.9565 15.5754 72.1998 14.9339C72.402 14.4009 72.7268 13.9774 73.1742 13.6634C73.626 13.3472 74.1458 13.1492 74.7338 13.0696C75.3261 12.9878 75.9352 13.034 76.561 13.2082C77.1933 13.3841 77.7135 13.6506 78.1218 14.0074C78.5312 14.3612 78.8079 14.7671 78.9519 15.2252C79.099 15.6841 79.0895 16.156 78.9233 16.6408L77.7738 16.3208Z"/>
</mask>
<path d="M77.7738 16.3208C77.895 15.8338 77.8006 15.4033 77.4906 15.0292C77.1807 14.6551 76.7287 14.3855 76.1348 14.2202C75.7006 14.0993 75.2947 14.0617 74.9173 14.1074C74.5431 14.154 74.2197 14.2713 73.9472 14.4593C73.6779 14.6481 73.4856 14.8944 73.3704 15.1981C73.274 15.4522 73.2534 15.688 73.3086 15.9055C73.3682 16.1208 73.474 16.3164 73.6261 16.4924C73.7794 16.6652 73.9499 16.8206 74.1377 16.9585C74.3266 17.0933 74.5032 17.2093 74.6676 17.3064L75.5651 17.844C75.7958 17.9802 76.0459 18.1491 76.3153 18.3509C76.588 18.5535 76.8303 18.794 77.0425 19.0723C77.259 19.3484 77.4033 19.6661 77.4753 20.0253C77.5473 20.3845 77.4987 20.7873 77.3294 21.2335C77.1343 21.748 76.819 22.1741 76.3837 22.5121C75.9516 22.8509 75.4241 23.069 74.8012 23.1663C74.1815 23.2644 73.4948 23.2087 72.7413 22.9989C72.0388 22.8034 71.4723 22.5241 71.0417 22.161C70.6142 21.7988 70.3283 21.38 70.1838 20.9047C70.0425 20.4303 70.0515 19.9274 70.2106 19.3961L71.4368 19.7374C71.3323 20.1058 71.344 20.4379 71.4718 20.7339C71.604 21.0276 71.8159 21.2785 72.1077 21.4864C72.4039 21.6922 72.7467 21.8493 73.1362 21.9577C73.5897 22.0839 74.0238 22.1259 74.4387 22.0838C74.8548 22.0386 75.2169 21.9167 75.5252 21.7181C75.8347 21.5165 76.0553 21.2421 76.1869 20.895C76.3068 20.5789 76.3134 20.2964 76.2066 20.0474C76.0999 19.7984 75.9215 19.5706 75.6716 19.364C75.4217 19.1574 75.1419 18.9596 74.8323 18.7707L73.7523 18.1001C73.0671 17.673 72.5762 17.1989 72.2796 16.6778C71.9831 16.1567 71.9565 15.5754 72.1998 14.9339C72.402 14.4009 72.7268 13.9774 73.1742 13.6634C73.626 13.3472 74.1458 13.1492 74.7338 13.0696C75.3261 12.9878 75.9352 13.034 76.561 13.2082C77.1933 13.3841 77.7135 13.6506 78.1218 14.0074C78.5312 14.3612 78.8079 14.7671 78.9519 15.2252C79.099 15.6841 79.0895 16.156 78.9233 16.6408L77.7738 16.3208Z" fill="black"/>
<path d="M77.7738 16.3208L76.7754 16.1645L76.5631 17.0176L77.4191 17.2558L77.7738 16.3208ZM77.4906 15.0292L76.6655 15.6638L76.6655 15.6638L77.4906 15.0292ZM74.9173 14.1074L74.8614 13.1427L74.8577 13.1432L74.9173 14.1074ZM73.9472 14.4593L73.3839 13.6874L73.3767 13.6925L73.9472 14.4593ZM73.3086 15.9055L72.3094 16.1974L72.3117 16.2065L72.3142 16.2156L73.3086 15.9055ZM73.6261 16.4924L72.8129 17.1411L72.8203 17.1494L73.6261 16.4924ZM74.1377 16.9585L73.4723 17.7436L73.4826 17.751L74.1377 16.9585ZM74.6676 17.3064L75.2605 16.4733L75.2558 16.4705L74.6676 17.3064ZM75.5651 17.844L74.9721 18.6772L74.9774 18.6803L75.5651 17.844ZM76.3153 18.3509L75.6433 19.1309L75.6459 19.1328L76.3153 18.3509ZM77.0425 19.0723L76.1951 19.679L76.2025 19.6884L77.0425 19.0723ZM77.4753 20.0253L78.4844 19.777L78.4844 19.777L77.4753 20.0253ZM76.3837 22.5121L75.7688 21.778L75.7645 21.7814L76.3837 22.5121ZM74.8012 23.1663L74.7074 22.2068L74.705 22.2072L74.8012 23.1663ZM71.0417 22.161L70.3267 22.9069L70.3284 22.9083L71.0417 22.161ZM70.1838 20.9047L69.1941 21.2314L69.1956 21.2361L70.1838 20.9047ZM70.2106 19.3961L70.5653 18.4611L69.5307 18.1732L69.2244 19.1953L70.2106 19.3961ZM71.4368 19.7374L72.4271 19.9242L72.6753 19.0484L71.7914 18.8024L71.4368 19.7374ZM71.4718 20.7339L70.5173 21.1575L70.5227 21.1696L71.4718 20.7339ZM72.1077 21.4864L71.453 22.2792L71.4621 22.2855L72.1077 21.4864ZM74.4387 22.0838L74.4734 23.0509L74.4812 23.0501L74.4387 22.0838ZM75.5252 21.7181L76.0586 22.5099L76.0636 22.5066L75.5252 21.7181ZM76.2066 20.0474L77.1619 19.6258L77.1619 19.6258L76.2066 20.0474ZM75.6716 19.364L74.9651 20.117L74.9651 20.117L75.6716 19.364ZM74.8323 18.7707L74.2266 19.5961L74.2327 19.5998L74.8323 18.7707ZM73.7523 18.1001L73.1453 18.9246L73.1466 18.9254L73.7523 18.1001ZM72.2796 16.6778L71.3678 17.1869L71.3678 17.1869L72.2796 16.6778ZM73.1742 13.6634L72.6045 12.8961L72.6033 12.8969L73.1742 13.6634ZM74.7338 13.0696L74.8052 14.0324L74.8081 14.032L74.7338 13.0696ZM78.1218 14.0074L77.3963 14.7443L77.4003 14.7477L78.1218 14.0074ZM78.9519 15.2252L77.9661 15.5645L77.9676 15.5693L78.9519 15.2252ZM78.9233 16.6408L78.5686 17.5758L79.5636 17.8527L79.8976 16.8786L78.9233 16.6408ZM78.7722 16.4772C78.964 15.7064 78.8061 14.9864 78.3157 14.3946L76.6655 15.6638C76.7951 15.8201 76.826 15.9612 76.7754 16.1645L78.7722 16.4772ZM78.3157 14.3946C77.8632 13.8485 77.2305 13.4914 76.4895 13.2852L75.7802 15.1552C76.227 15.2795 76.4981 15.4617 76.6655 15.6638L78.3157 14.3946ZM76.4895 13.2852C75.9527 13.1358 75.406 13.0767 74.8614 13.1427L74.9733 15.0722C75.1834 15.0467 75.4485 15.0628 75.7802 15.1552L76.4895 13.2852ZM74.8577 13.1432C74.3312 13.2087 73.8282 13.3811 73.3839 13.6875L74.5105 15.2311C74.6113 15.1616 74.755 15.0993 74.9769 15.0717L74.8577 13.1432ZM73.3767 13.6925C72.9214 14.0117 72.5949 14.4349 72.4071 14.93L74.3338 15.4662C74.3764 15.3539 74.4344 15.2845 74.5177 15.226L73.3767 13.6925ZM72.4071 14.93C72.2525 15.3375 72.201 15.7704 72.3094 16.1974L74.3079 15.6136C74.3058 15.6056 74.2956 15.5669 74.3338 15.4662L72.4071 14.93ZM72.3142 16.2156C72.4097 16.5609 72.5793 16.8707 72.8129 17.141L74.4393 15.8437C74.3687 15.7621 74.3266 15.6807 74.303 15.5954L72.3142 16.2156ZM72.8203 17.1494C73.0154 17.3694 73.2329 17.5677 73.4724 17.7436L74.803 16.1735C74.667 16.0735 74.5435 15.9611 74.4319 15.8353L72.8203 17.1494ZM73.4826 17.751C73.6885 17.8979 73.8877 18.0291 74.0794 18.1424L75.2558 16.4705C75.1188 16.3895 74.9646 16.2887 74.7927 16.1661L73.4826 17.751ZM74.0747 18.1396L74.9722 18.6771L76.158 17.0109L75.2605 16.4733L74.0747 18.1396ZM74.9774 18.6803C75.1724 18.7954 75.3941 18.9443 75.6433 19.1309L76.9874 17.5709C76.6978 17.354 76.4192 17.165 76.1527 17.0077L74.9774 18.6803ZM75.6459 19.1328C75.8478 19.283 76.0311 19.4637 76.1951 19.6789L77.8898 18.4657C77.6296 18.1243 77.3281 17.8241 76.9848 17.5689L75.6459 19.1328ZM76.2025 19.6884C76.331 19.8523 76.42 20.0434 76.4661 20.2737L78.4844 19.777C78.3865 19.2888 78.187 18.8445 77.8825 18.4562L76.2025 19.6884ZM76.4661 20.2737C76.4967 20.4259 76.4872 20.646 76.366 20.9654L78.2928 21.5017C78.5102 20.9286 78.5979 20.3432 78.4844 19.777L76.4661 20.2737ZM76.366 20.9654C76.2366 21.3065 76.0388 21.5684 75.7688 21.778L76.9986 23.2461C77.5992 22.7798 78.0319 22.1894 78.2928 21.5017L76.366 20.9654ZM75.7645 21.7814C75.5076 21.9829 75.1697 22.1346 74.7074 22.2068L74.8949 24.1257C75.6785 24.0034 76.3957 23.7189 77.0029 23.2427L75.7645 21.7814ZM74.705 22.2072C74.2757 22.2752 73.7458 22.2448 73.0959 22.064L72.3866 23.9339C73.2439 24.1725 74.0872 24.2537 74.8973 24.1254L74.705 22.2072ZM73.0959 22.064C72.4949 21.8967 72.0607 21.6715 71.7549 21.4137L70.3284 22.9083C70.8839 23.3767 71.5828 23.7102 72.3866 23.9339L73.0959 22.064ZM71.7566 21.4152C71.4437 21.15 71.262 20.8692 71.1721 20.5733L69.1956 21.2361C69.3946 21.8909 69.7848 22.4476 70.3267 22.9069L71.7566 21.4152ZM71.1735 20.5781C71.0865 20.286 71.0861 19.9668 71.1968 19.597L69.2244 19.1953C69.0169 19.8881 68.9985 20.5745 69.1941 21.2314L71.1735 20.5781ZM69.856 20.3311L71.0821 20.6724L71.7914 18.8024L70.5653 18.4611L69.856 20.3311ZM70.4465 19.5506C70.2921 20.095 70.2964 20.6457 70.5174 21.1575L72.4263 20.3102C72.3917 20.2301 72.3725 20.1165 72.4271 19.9242L70.4465 19.5506ZM70.5227 21.1696C70.7246 21.6184 71.0441 21.9877 71.453 22.2792L72.7624 20.6937C72.5877 20.5692 72.4833 20.4368 72.4209 20.2981L70.5227 21.1696ZM71.4621 22.2855C71.853 22.5572 72.2961 22.7576 72.7816 22.8927L73.4909 21.0227C73.1973 20.941 72.9547 20.8272 72.7533 20.6873L71.4621 22.2855ZM72.7816 22.8927C73.3394 23.0479 73.906 23.1085 74.4734 23.0509L74.404 21.1167C74.1416 21.1434 73.8399 21.1198 73.4909 21.0227L72.7816 22.8927ZM74.4812 23.0501C75.0438 22.9889 75.5804 22.8179 76.0585 22.5099L74.9919 20.9263C74.8535 21.0155 74.6657 21.0882 74.3962 21.1175L74.4812 23.0501ZM76.0636 22.5066C76.5789 22.1708 76.9433 21.7088 77.1503 21.1631L75.2236 20.6269C75.1672 20.7754 75.0905 20.8621 74.9868 20.9296L76.0636 22.5066ZM77.1503 21.1631C77.3398 20.6637 77.3779 20.1293 77.1619 19.6258L75.2513 20.469C75.2536 20.4744 75.2558 20.4806 75.2555 20.4961C75.255 20.5142 75.2506 20.5557 75.2236 20.6269L77.1503 21.1631ZM77.1619 19.6258C76.9911 19.2274 76.7174 18.8915 76.378 18.611L74.9651 20.117C75.1257 20.2497 75.2086 20.3694 75.2513 20.469L77.1619 19.6258ZM76.378 18.611C76.0912 18.3739 75.7751 18.151 75.4319 17.9416L74.2327 19.5998C74.5087 19.7682 74.7521 19.9409 74.9651 20.117L76.378 18.611ZM75.438 17.9453L74.358 17.2747L73.1466 18.9254L74.2266 19.596L75.438 17.9453ZM74.3594 17.2756C73.7631 16.9039 73.396 16.528 73.1914 16.1687L71.3678 17.1869C71.7564 17.8697 72.3711 18.442 73.1453 18.9246L74.3594 17.2756ZM73.1914 16.1687C73.0402 15.903 73.0093 15.6078 73.1632 15.2021L71.2364 14.6658C70.9036 15.543 70.9259 16.4104 71.3678 17.1869L73.1914 16.1687ZM73.1632 15.2021C73.2973 14.8484 73.4938 14.6063 73.7451 14.4299L72.6033 12.8969C71.9598 13.3485 71.5066 13.9535 71.2364 14.6658L73.1632 15.2021ZM73.7439 14.4307C74.0347 14.2272 74.3797 14.09 74.8052 14.0324L74.6624 12.1069C73.912 12.2085 73.2173 12.4671 72.6045 12.8961L73.7439 14.4307ZM74.8081 14.032C75.2378 13.9726 75.7007 14.0024 76.2064 14.1432L76.9157 12.2732C76.1697 12.0656 75.4144 12.003 74.6595 12.1073L74.8081 14.032ZM76.2064 14.1432C76.7225 14.2868 77.1093 14.4933 77.3963 14.7443L78.8472 13.2706C78.3178 12.8078 77.664 12.4815 76.9157 12.2732L76.2064 14.1432ZM77.4003 14.7477C77.6999 15.0066 77.8764 15.2792 77.9661 15.5645L79.9377 14.8859C79.7394 14.2551 79.3625 13.7158 78.8433 13.2672L77.4003 14.7477ZM77.9676 15.5693C78.0539 15.8385 78.0504 16.1071 77.9489 16.4029L79.8976 16.8786C80.1286 16.2049 80.1442 15.5298 79.9362 14.8811L77.9676 15.5693ZM79.2779 15.7058L78.1284 15.3858L77.4191 17.2558L78.5686 17.5758L79.2779 15.7058Z" fill="black" mask="url(#path-29-outside-13_1022_212)"/>
<mask id="path-31-outside-14_1022_212" maskUnits="userSpaceOnUse" x="76.513" y="15.1324" width="18.395" height="16.4888" fill="black">
<rect fill="white" x="76.513" y="15.1324" width="18.395" height="16.4888"/>
<path d="M89.3695 22.5821C89.6447 22.1664 89.6923 21.7403 89.5122 21.3038C89.3321 20.8673 88.9804 20.4862 88.457 20.1605C88.0743 19.9223 87.6922 19.7695 87.3109 19.7021C86.9323 19.6364 86.5803 19.651 86.2549 19.7458C85.9322 19.8424 85.6658 20.0145 85.4557 20.2622C85.2799 20.4695 85.1836 20.6818 85.1669 20.8992C85.1551 21.1159 85.1946 21.3278 85.2855 21.535C85.3785 21.7396 85.4939 21.933 85.6316 22.1153C85.7715 22.2951 85.9056 22.4538 86.0338 22.5915L86.7317 23.3502C86.9118 23.5434 87.1 23.7726 87.2965 24.0377C87.4957 24.3046 87.6534 24.5978 87.7694 24.9171C87.8904 25.2357 87.9278 25.5718 87.8816 25.9254C87.8354 26.2789 87.6579 26.6377 87.3492 27.0017C86.9933 27.4213 86.5493 27.7242 86.0172 27.9106C85.4879 28.0987 84.905 28.1472 84.2686 28.0562C83.6349 27.9669 82.986 27.7156 82.3219 27.3023C81.7028 26.9171 81.2429 26.4937 80.9421 26.0323C80.644 25.5726 80.5017 25.1018 80.5151 24.6196C80.5313 24.1393 80.7026 23.6762 81.029 23.2306L82.1096 23.9031C81.889 24.2138 81.793 24.5247 81.8214 24.8359C81.8548 25.1463 81.9795 25.4402 82.1957 25.7176C82.4168 25.9943 82.699 26.2394 83.0423 26.4531C83.4418 26.7017 83.8499 26.8669 84.2665 26.9485C84.6853 27.0276 85.0765 27.02 85.4401 26.9258C85.8059 26.8291 86.1089 26.6392 86.349 26.3561C86.5677 26.0983 86.6655 25.8385 86.6423 25.577C86.6191 25.3154 86.5195 25.0526 86.3436 24.7886C86.1676 24.5247 85.9599 24.2602 85.7203 23.9952L84.8881 23.0603C84.3607 22.4656 84.0372 21.8839 83.9177 21.3151C83.7982 20.7464 83.9603 20.2005 84.4041 19.6773C84.7728 19.2425 85.2253 18.9448 85.7614 18.7841C86.3025 18.6227 86.8714 18.5906 87.4682 18.6878C88.07 18.7843 88.6467 19.0041 89.1982 19.3474C89.7554 19.6941 90.1745 20.0921 90.4557 20.5412C90.7389 20.9878 90.8764 21.4441 90.8681 21.9101C90.8626 22.3779 90.7008 22.812 90.3825 23.2125L89.3695 22.5821Z"/>
</mask>
<path d="M89.3695 22.5821C89.6447 22.1664 89.6923 21.7403 89.5122 21.3038C89.3321 20.8673 88.9804 20.4862 88.457 20.1605C88.0743 19.9223 87.6922 19.7695 87.3109 19.7021C86.9323 19.6364 86.5803 19.651 86.2549 19.7458C85.9322 19.8424 85.6658 20.0145 85.4557 20.2622C85.2799 20.4695 85.1836 20.6818 85.1669 20.8992C85.1551 21.1159 85.1946 21.3278 85.2855 21.535C85.3785 21.7396 85.4939 21.933 85.6316 22.1153C85.7715 22.2951 85.9056 22.4538 86.0338 22.5915L86.7317 23.3502C86.9118 23.5434 87.1 23.7726 87.2965 24.0377C87.4957 24.3046 87.6534 24.5978 87.7694 24.9171C87.8904 25.2357 87.9278 25.5718 87.8816 25.9254C87.8354 26.2789 87.6579 26.6377 87.3492 27.0017C86.9933 27.4213 86.5493 27.7242 86.0172 27.9106C85.4879 28.0987 84.905 28.1472 84.2686 28.0562C83.6349 27.9669 82.986 27.7156 82.3219 27.3023C81.7028 26.9171 81.2429 26.4937 80.9421 26.0323C80.644 25.5726 80.5017 25.1018 80.5151 24.6196C80.5313 24.1393 80.7026 23.6762 81.029 23.2306L82.1096 23.9031C81.889 24.2138 81.793 24.5247 81.8214 24.8359C81.8548 25.1463 81.9795 25.4402 82.1957 25.7176C82.4168 25.9943 82.699 26.2394 83.0423 26.4531C83.4418 26.7017 83.8499 26.8669 84.2665 26.9485C84.6853 27.0276 85.0765 27.02 85.4401 26.9258C85.8059 26.8291 86.1089 26.6392 86.349 26.3561C86.5677 26.0983 86.6655 25.8385 86.6423 25.577C86.6191 25.3154 86.5195 25.0526 86.3436 24.7886C86.1676 24.5247 85.9599 24.2602 85.7203 23.9952L84.8881 23.0603C84.3607 22.4656 84.0372 21.8839 83.9177 21.3151C83.7982 20.7464 83.9603 20.2005 84.4041 19.6773C84.7728 19.2425 85.2253 18.9448 85.7614 18.7841C86.3025 18.6227 86.8714 18.5906 87.4682 18.6878C88.07 18.7843 88.6467 19.0041 89.1982 19.3474C89.7554 19.6941 90.1745 20.0921 90.4557 20.5412C90.7389 20.9878 90.8764 21.4441 90.8681 21.9101C90.8626 22.3779 90.7008 22.812 90.3825 23.2125L89.3695 22.5821Z" fill="black"/>
<path d="M89.3695 22.5821L88.4503 22.1471L87.9683 22.8752L88.7227 23.3447L89.3695 22.5821ZM89.5122 21.3038L88.5056 21.6515L88.5056 21.6515L89.5122 21.3038ZM87.3109 19.7021L87.5685 18.7926L87.5648 18.7919L87.3109 19.7021ZM86.2549 19.7458L85.9573 18.8674L85.9487 18.8699L86.2549 19.7458ZM85.1669 20.8992L84.1019 20.879L84.1012 20.8881L84.1007 20.8972L85.1669 20.8992ZM85.2855 21.535L84.2858 21.8992L84.2903 21.9091L85.2855 21.535ZM85.6316 22.1153L84.7314 22.6488L84.7391 22.6586L85.6316 22.1153ZM86.0338 22.5915L86.8791 21.9925L86.8754 21.9885L86.0338 22.5915ZM86.7317 23.3502L85.8863 23.9493L85.8905 23.9537L86.7317 23.3502ZM87.2965 24.0377L86.3914 24.5646L86.3933 24.5671L87.2965 24.0377ZM87.7694 24.9171L86.7502 25.2325L86.7543 25.2434L87.7694 24.9171ZM87.8816 25.9254L88.9421 25.9888L88.9421 25.9888L87.8816 25.9254ZM86.0172 27.9106L85.6574 27.0521L85.6521 27.054L86.0172 27.9106ZM84.2686 28.0562L84.4878 27.1405L84.4853 27.1402L84.2686 28.0562ZM80.9421 26.0323L80.0064 26.5151L80.0076 26.5169L80.9421 26.0323ZM80.5151 24.6196L79.4482 24.6343L79.4481 24.6391L80.5151 24.6196ZM81.029 23.2306L81.6759 22.468L80.7641 21.9005L80.1361 22.7579L81.029 23.2306ZM82.1096 23.9031L83.011 24.364L83.5354 23.6252L82.7564 23.1405L82.1096 23.9031ZM81.8214 24.8359L80.7573 24.9507L80.7586 24.9634L81.8214 24.8359ZM82.1957 25.7176L81.3033 26.2613L81.3101 26.2698L82.1957 25.7176ZM84.2665 26.9485L83.9875 27.8541L83.9953 27.8556L84.2665 26.9485ZM85.4401 26.9258L85.7021 27.814L85.7081 27.8125L85.4401 26.9258ZM86.6423 25.577L87.7065 25.4643L87.7065 25.4643L86.6423 25.577ZM86.3436 24.7886L85.4139 25.2804L85.4139 25.2804L86.3436 24.7886ZM85.7203 23.9952L84.8651 24.5834L84.8698 24.5886L85.7203 23.9952ZM84.8881 23.0603L84.0319 23.6472L84.0329 23.6484L84.8881 23.0603ZM83.9177 21.3151L82.8674 21.5215L82.8674 21.5215L83.9177 21.3151ZM85.7614 18.7841L85.4562 17.908L85.4548 17.9084L85.7614 18.7841ZM87.4682 18.6878L87.2262 19.6L87.2292 19.6005L87.4682 18.6878ZM90.4557 20.5412L89.5128 21.0126L89.5155 21.0168L90.4557 20.5412ZM90.8681 21.9101L89.8009 21.9377L89.8008 21.9426L90.8681 21.9101ZM90.3825 23.2125L89.7357 23.9751L90.6125 24.5208L91.252 23.716L90.3825 23.2125ZM90.2887 23.0171C90.7242 22.3592 90.8037 21.6466 90.5188 20.9561L88.5056 21.6515C88.5809 21.8339 88.5652 21.9735 88.4503 22.1471L90.2887 23.0171ZM90.5188 20.9561C90.2559 20.3189 89.7568 19.8042 89.1038 19.3978L87.8101 20.9231C88.2039 21.1681 88.4083 21.4157 88.5056 21.6515L90.5188 20.9561ZM89.1038 19.3978C88.6307 19.1034 88.1189 18.8898 87.5685 18.7926L87.0532 20.6116C87.2656 20.6492 87.5178 20.7412 87.8101 20.9231L89.1038 19.3978ZM87.5648 18.7919C87.0322 18.6995 86.4879 18.7128 85.9573 18.8674L86.5524 20.6242C86.6728 20.5892 86.8325 20.5733 87.057 20.6123L87.5648 18.7919ZM85.9487 18.8699C85.4032 19.0332 84.9492 19.33 84.6067 19.7338L86.3047 20.7906C86.3824 20.699 86.4611 20.6516 86.561 20.6217L85.9487 18.8699ZM84.6067 19.7338C84.3248 20.0662 84.1348 20.4521 84.1019 20.879L86.2318 20.9195C86.2325 20.9115 86.235 20.8727 86.3047 20.7906L84.6067 19.7338ZM84.1007 20.8972C84.0818 21.2447 84.1463 21.5809 84.2859 21.8992L86.2851 21.1708C86.2429 21.0747 86.2284 20.9871 86.233 20.9012L84.1007 20.8972ZM84.2903 21.9091C84.4087 22.1694 84.5558 22.4163 84.7315 22.6488L86.5317 21.5819C86.4319 21.4498 86.3483 21.3097 86.2806 21.1609L84.2903 21.9091ZM84.7391 22.6586C84.8916 22.8546 85.0426 23.0339 85.1922 23.1946L86.8754 21.9885C86.7686 21.8737 86.6514 21.7356 86.5241 21.572L84.7391 22.6586ZM85.1885 23.1906L85.8863 23.9493L87.577 22.7512L86.8791 21.9925L85.1885 23.1906ZM85.8905 23.9537C86.0426 24.117 86.2098 24.3193 86.3914 24.5646L88.2015 23.5109C87.9903 23.2258 87.7809 22.9699 87.5729 22.7468L85.8905 23.9537ZM86.3933 24.5671C86.541 24.7648 86.6605 24.9855 86.7503 25.2324L88.7886 24.6018C88.6462 24.21 88.4505 23.8444 88.1996 23.5083L86.3933 24.5671ZM86.7543 25.2434C86.8262 25.4325 86.8508 25.6353 86.8211 25.8619L88.9421 25.9888C89.0049 25.5084 88.9547 25.039 88.7845 24.5909L86.7543 25.2434ZM86.8211 25.8619C86.8016 26.0117 86.7211 26.2128 86.5002 26.4733L88.1982 27.5301C88.5947 27.0626 88.8692 26.5461 88.9421 25.9888L86.8211 25.8619ZM86.5002 26.4733C86.2642 26.7516 85.9874 26.9366 85.6574 27.0521L86.3771 28.769C87.1112 28.5119 87.7224 28.091 88.1982 27.5301L86.5002 26.4733ZM85.6521 27.054C85.3373 27.1658 84.9601 27.2081 84.4878 27.1405L84.0493 28.9719C84.8499 29.0863 85.6385 29.0315 86.3823 28.7672L85.6521 27.054ZM84.4853 27.1402C84.0463 27.0783 83.5414 26.8961 82.9688 26.5397L81.6751 28.065C82.4306 28.5351 83.2234 28.8555 84.0518 28.9722L84.4853 27.1402ZM82.9688 26.5397C82.439 26.21 82.0901 25.8754 81.8765 25.5477L80.0076 26.5169C80.3957 27.1121 80.9666 27.6241 81.6751 28.065L82.9688 26.5397ZM81.8777 25.5495C81.6595 25.213 81.5738 24.9002 81.5822 24.6001L79.4481 24.6391C79.4296 25.3033 79.6286 25.9322 80.0064 26.5151L81.8777 25.5495ZM81.582 24.6049C81.592 24.3092 81.6948 24.0135 81.922 23.7033L80.1361 22.7579C79.7105 23.339 79.4707 23.9693 79.4482 24.6343L81.582 24.6049ZM80.3822 23.9932L81.4628 24.6657L82.7564 23.1405L81.6759 22.468L80.3822 23.9932ZM81.2082 23.4421C80.8822 23.9014 80.7082 24.4125 80.7574 24.9507L82.8854 24.7212C82.8777 24.6369 82.8959 24.5262 83.011 24.364L81.2082 23.4421ZM80.7586 24.9634C80.8096 25.4377 81.0005 25.8725 81.3034 26.2613L83.0879 25.174C82.9585 25.0079 82.8999 24.8549 82.8842 24.7084L80.7586 24.9634ZM81.3101 26.2698C81.602 26.635 81.9676 26.9494 82.3954 27.2157L83.6891 25.6904C83.4303 25.5294 83.2315 25.3535 83.0812 25.1654L81.3101 26.2698ZM82.3954 27.2157C82.887 27.5216 83.4178 27.7424 83.9875 27.854L84.5455 26.0429C84.2821 25.9913 83.9967 25.8819 83.6891 25.6904L82.3954 27.2157ZM83.9953 27.8556C84.5616 27.9625 85.138 27.9602 85.7021 27.814L85.1782 26.0376C85.0149 26.0799 84.809 26.0927 84.5377 26.0414L83.9953 27.8556ZM85.7081 27.8125C86.3172 27.6514 86.8205 27.3295 87.198 26.8844L85.5 25.8277C85.3973 25.9488 85.2947 26.0068 85.1722 26.0392L85.7081 27.8125ZM87.198 26.8844C87.5435 26.4771 87.7534 25.9933 87.7065 25.4643L85.578 25.6896C85.5785 25.6952 85.5786 25.7016 85.5733 25.7159C85.567 25.7325 85.5492 25.7697 85.5 25.8277L87.198 26.8844ZM87.7065 25.4643C87.6694 25.0458 87.5121 24.6552 87.2732 24.2968L85.4139 25.2804C85.5269 25.45 85.5688 25.5849 85.578 25.6896L87.7065 25.4643ZM87.2732 24.2968C87.0713 23.9938 86.8364 23.6956 86.5708 23.4018L84.8698 24.5886C85.0833 24.8248 85.264 25.0555 85.4139 25.2804L87.2732 24.2968ZM86.5755 23.4071L85.7433 22.4721L84.0329 23.6484L84.8651 24.5833L86.5755 23.4071ZM85.7444 22.4733C85.2854 21.9558 85.0504 21.5011 84.968 21.1088L82.8674 21.5215C83.0241 22.2666 83.436 22.9753 84.0319 23.6472L85.7444 22.4733ZM84.968 21.1088C84.907 20.8189 84.9724 20.5366 85.2531 20.2056L83.5551 19.1489C82.9482 19.8644 82.6893 20.674 82.8674 21.5215L84.968 21.1088ZM85.2531 20.2056C85.4978 19.9171 85.7669 19.7501 86.068 19.6599L85.4548 17.9084C84.6837 18.1395 84.0479 18.5679 83.5551 19.1489L85.2531 20.2056ZM86.0666 19.6603C86.4149 19.5564 86.7943 19.5296 87.2262 19.6L87.7103 17.7756C86.9485 17.6515 86.1901 17.689 85.4562 17.908L86.0666 19.6603ZM87.2292 19.6005C87.6658 19.6705 88.1057 19.8326 88.5514 20.11L89.8451 18.5847C89.1876 18.1756 88.4743 17.8981 87.7073 17.7751L87.2292 19.6005ZM88.5514 20.11C89.0062 20.3931 89.3151 20.6967 89.5128 21.0125L91.3986 20.0699C91.034 19.4874 90.5045 18.9952 89.8451 18.5847L88.5514 20.11ZM89.5155 21.0168C89.7228 21.3437 89.8061 21.6474 89.8009 21.9377L91.9353 21.8826C91.9468 21.2409 91.7551 20.632 91.3959 20.0656L89.5155 21.0168ZM89.8008 21.9426C89.7976 22.2169 89.7073 22.4646 89.5131 22.709L91.252 23.716C91.6942 23.1594 91.9277 22.5388 91.9354 21.8777L89.8008 21.9426ZM91.0294 22.4499L90.0164 21.8195L88.7227 23.3447L89.7357 23.9751L91.0294 22.4499Z" fill="black" mask="url(#path-31-outside-14_1022_212)"/>
<mask id="path-33-outside-15_1022_212" maskUnits="userSpaceOnUse" x="87.1739" y="25.0728" width="13.6245" height="9.91935" fill="black">
<rect fill="white" x="87.1739" y="25.0728" width="13.6245" height="9.91935"/>
<path d="M98.2625 27.914L89.618 33.2938L88.8205 32.3536L97.4649 26.9738L98.2625 27.914Z"/>
</mask>
<path d="M98.2625 27.914L89.618 33.2938L88.8205 32.3536L97.4649 26.9738L98.2625 27.914Z" fill="black"/>
<path d="M98.2625 27.914L98.9093 28.6767L99.7583 28.1483L99.1115 27.3857L98.2625 27.914ZM89.618 33.2938L88.769 33.8222L89.4158 34.5848L90.2648 34.0565L89.618 33.2938ZM88.8205 32.3536L88.1736 31.5909L87.3246 32.1193L87.9714 32.8819L88.8205 32.3536ZM97.4649 26.9738L98.314 26.4454L97.6671 25.6828L96.8181 26.2111L97.4649 26.9738ZM97.6156 27.1514L88.9711 32.5312L90.2648 34.0565L98.9093 28.6767L97.6156 27.1514ZM90.467 32.7655L89.6695 31.8252L87.9714 32.8819L88.769 33.8222L90.467 32.7655ZM89.4673 33.1162L98.1118 27.7364L96.8181 26.2111L88.1736 31.5909L89.4673 33.1162ZM96.6159 27.5021L97.4135 28.4424L99.1115 27.3857L98.314 26.4454L96.6159 27.5021Z" fill="black" mask="url(#path-33-outside-15_1022_212)"/>
<mask id="path-35-outside-16_1022_212" maskUnits="userSpaceOnUse" x="92.3188" y="35.0656" width="16.4253" height="13.7706" fill="black">
<rect fill="white" x="92.3188" y="35.0656" width="16.4253" height="13.7706"/>
<path d="M106.392 44.2549L96.583 46.9849L96.1598 45.8693L101.894 38.5382L101.858 38.4452L94.1568 40.5887L93.7195 39.4359L103.529 36.7059L103.952 37.8215L98.2058 45.1765L98.241 45.2695L105.962 43.1207L106.392 44.2549Z"/>
</mask>
<path d="M106.392 44.2549L96.583 46.9849L96.1598 45.8693L101.894 38.5382L101.858 38.4452L94.1568 40.5887L93.7195 39.4359L103.529 36.7059L103.952 37.8215L98.2058 45.1765L98.241 45.2695L105.962 43.1207L106.392 44.2549Z" fill="black"/>
<path d="M106.392 44.2549L106.747 45.1899L107.71 44.9217L107.355 43.9867L106.392 44.2549ZM96.583 46.9849L95.6196 47.253L95.9743 48.188L96.9377 47.9199L96.583 46.9849ZM96.1598 45.8693L95.3192 45.254L95.0109 45.6482L95.1965 46.1374L96.1598 45.8693ZM101.894 38.5382L102.734 39.1534L103.043 38.7592L102.857 38.27L101.894 38.5382ZM101.858 38.4452L102.822 38.1771L102.467 37.2421L101.504 37.5102L101.858 38.4452ZM94.1568 40.5887L93.1934 40.8568L93.5481 41.7918L94.5115 41.5237L94.1568 40.5887ZM93.7195 39.4359L93.3648 38.5009L92.4015 38.769L92.7561 39.704L93.7195 39.4359ZM103.529 36.7059L104.492 36.4377L104.137 35.5027L103.174 35.7709L103.529 36.7059ZM103.952 37.8215L104.793 38.4363L105.101 38.0422L104.915 37.5534L103.952 37.8215ZM98.2058 45.1765L97.3648 44.5617L97.0569 44.9558L97.2424 45.4447L98.2058 45.1765ZM98.241 45.2695L97.2776 45.5376L97.6323 46.4726L98.5957 46.2045L98.241 45.2695ZM105.962 43.1207L106.925 42.8525L106.571 41.9175L105.607 42.1857L105.962 43.1207ZM106.037 43.3199L96.2284 46.0499L96.9377 47.9199L106.747 45.1899L106.037 43.3199ZM97.5464 46.7168L97.1232 45.6012L95.1965 46.1374L95.6196 47.253L97.5464 46.7168ZM97.0005 46.4845L102.734 39.1534L101.053 37.9229L95.3192 45.254L97.0005 46.4845ZM102.857 38.27L102.822 38.1771L100.895 38.7133L100.93 38.8063L102.857 38.27ZM101.504 37.5102L93.8021 39.6537L94.5115 41.5237L102.213 39.3802L101.504 37.5102ZM95.1202 40.3206L94.6829 39.1678L92.7561 39.704L93.1934 40.8568L95.1202 40.3206ZM94.0742 40.3709L103.883 37.6409L103.174 35.7709L93.3648 38.5009L94.0742 40.3709ZM102.565 36.974L102.988 38.0896L104.915 37.5534L104.492 36.4377L102.565 36.974ZM103.111 37.2066L97.3648 44.5617L99.0467 45.7914L104.793 38.4363L103.111 37.2066ZM97.2424 45.4447L97.2776 45.5376L99.2044 45.0014L99.1691 44.9084L97.2424 45.4447ZM98.5957 46.2045L106.316 44.0557L105.607 42.1857L97.8864 44.3345L98.5957 46.2045ZM104.998 43.3888L105.429 44.523L107.355 43.9867L106.925 42.8525L104.998 43.3888Z" fill="black" mask="url(#path-35-outside-16_1022_212)"/>
<mask id="path-37-outside-17_1022_212" maskUnits="userSpaceOnUse" x="94" y="46.6579" width="14" height="12" fill="black">
<rect fill="white" x="94" y="46.6579" width="14" height="12"/>
<path d="M103 55.8511C103.335 55.7417 103.635 55.5975 103.9 55.4186C104.168 55.2429 104.397 55.0324 104.586 54.7872C104.775 54.5452 104.919 54.2701 105.018 53.9619C105.118 53.6536 105.168 53.3156 105.168 52.9477C105.168 52.3445 105.012 51.7959 104.7 51.3021C104.389 50.8082 103.93 50.4155 103.323 50.1238C102.717 49.8321 101.973 49.6863 101.091 49.6863C100.209 49.6863 99.4652 49.8338 98.8587 50.1288C98.2521 50.4238 97.7931 50.8231 97.4815 51.3269C97.17 51.8307 97.0142 52.3975 97.0142 53.0272C97.0142 53.6105 97.1385 54.1243 97.3871 54.5684C97.639 55.0159 97.9936 55.3639 98.451 55.6124C98.9117 55.8643 99.4536 55.9903 100.077 55.9903L99.9972 56.3681V53.3056H101.091V57.1835H99.9972C99.1586 57.1835 98.4295 57.0045 97.8097 56.6465C97.1899 56.2919 96.7093 55.8014 96.3679 55.1749C96.0298 54.5518 95.8608 53.8359 95.8608 53.0272C95.8608 52.1257 96.0729 51.3336 96.4972 50.6508C96.9214 49.9713 97.5246 49.441 98.3068 49.0599C99.089 48.682 100.017 48.4931 101.091 48.4931C101.896 48.4931 102.621 48.6008 103.263 48.8163C103.91 49.035 104.46 49.3433 104.914 49.741C105.368 50.1387 105.716 50.6094 105.958 51.1529C106.2 51.6965 106.321 52.2947 106.321 52.9477C106.321 53.4846 106.24 53.9851 106.077 54.4491C105.918 54.9164 105.691 55.3324 105.396 55.697C105.105 56.0649 104.755 56.3714 104.347 56.6167C103.943 56.862 103.494 57.031 103 57.1238V55.8511Z"/>
</mask>
<path d="M103 55.8511C103.335 55.7417 103.635 55.5975 103.9 55.4186C104.168 55.2429 104.397 55.0324 104.586 54.7872C104.775 54.5452 104.919 54.2701 105.018 53.9619C105.118 53.6536 105.168 53.3156 105.168 52.9477C105.168 52.3445 105.012 51.7959 104.7 51.3021C104.389 50.8082 103.93 50.4155 103.323 50.1238C102.717 49.8321 101.973 49.6863 101.091 49.6863C100.209 49.6863 99.4652 49.8338 98.8587 50.1288C98.2521 50.4238 97.7931 50.8231 97.4815 51.3269C97.17 51.8307 97.0142 52.3975 97.0142 53.0272C97.0142 53.6105 97.1385 54.1243 97.3871 54.5684C97.639 55.0159 97.9936 55.3639 98.451 55.6124C98.9117 55.8643 99.4536 55.9903 100.077 55.9903L99.9972 56.3681V53.3056H101.091V57.1835H99.9972C99.1586 57.1835 98.4295 57.0045 97.8097 56.6465C97.1899 56.2919 96.7093 55.8014 96.3679 55.1749C96.0298 54.5518 95.8608 53.8359 95.8608 53.0272C95.8608 52.1257 96.0729 51.3336 96.4972 50.6508C96.9214 49.9713 97.5246 49.441 98.3068 49.0599C99.089 48.682 100.017 48.4931 101.091 48.4931C101.896 48.4931 102.621 48.6008 103.263 48.8163C103.91 49.035 104.46 49.3433 104.914 49.741C105.368 50.1387 105.716 50.6094 105.958 51.1529C106.2 51.6965 106.321 52.2947 106.321 52.9477C106.321 53.4846 106.24 53.9851 106.077 54.4491C105.918 54.9164 105.691 55.3324 105.396 55.697C105.105 56.0649 104.755 56.3714 104.347 56.6167C103.943 56.862 103.494 57.031 103 57.1238V55.8511Z" fill="black"/>
<path d="M103 55.8511L102.689 54.9005L102 55.1258V55.8511H103ZM103.9 55.4186L103.352 54.5818L103.346 54.5857L103.34 54.5897L103.9 55.4186ZM104.586 54.7872L103.798 54.1717L103.794 54.1769L104.586 54.7872ZM105.018 53.9619L105.97 54.2689L105.97 54.2689L105.018 53.9619ZM103.323 50.1238L102.89 51.025L102.89 51.025L103.323 50.1238ZM98.8587 50.1288L98.4213 49.2295L98.4213 49.2295L98.8587 50.1288ZM97.4815 51.3269L96.631 50.801L97.4815 51.3269ZM97.3871 54.5684L96.5145 55.0568L96.5157 55.059L97.3871 54.5684ZM98.451 55.6124L98.9307 54.735L98.9285 54.7338L98.451 55.6124ZM100.077 55.9903L101.055 56.1963L101.309 54.9903H100.077V55.9903ZM99.9972 56.3681H98.9972L100.976 56.5741L99.9972 56.3681ZM99.9972 53.3056V52.3056H98.9972V53.3056H99.9972ZM101.091 53.3056H102.091V52.3056H101.091V53.3056ZM101.091 57.1835V58.1835H102.091V57.1835H101.091ZM97.8097 56.6465L98.3098 55.7806L98.3063 55.7786L97.8097 56.6465ZM96.3679 55.1749L95.4889 55.6518L95.4898 55.6535L96.3679 55.1749ZM96.4972 50.6508L95.6489 50.1212L95.6478 50.123L96.4972 50.6508ZM98.3068 49.0599L97.8719 48.1594L97.8688 48.1609L98.3068 49.0599ZM103.263 48.8163L103.584 47.8691L103.581 47.8681L103.263 48.8163ZM104.914 49.741L104.255 50.4932L104.255 50.4932L104.914 49.741ZM105.958 51.1529L106.872 50.7463L105.958 51.1529ZM106.077 54.4491L105.134 54.1187L105.131 54.1268L106.077 54.4491ZM105.396 55.697L104.619 55.0679L104.613 55.0757L105.396 55.697ZM104.347 56.6167L103.832 55.7598L103.829 55.7617L104.347 56.6167ZM103 57.1238H102V58.3292L103.185 58.1066L103 57.1238ZM103.311 56.8016C103.725 56.6663 104.11 56.4832 104.459 56.2474L103.34 54.5897C103.159 54.7118 102.945 54.8171 102.689 54.9005L103.311 56.8016ZM104.447 56.2553C104.806 56.0206 105.118 55.7345 105.378 55.3974L103.794 54.1769C103.676 54.3303 103.531 54.4651 103.352 54.5818L104.447 56.2553ZM105.374 55.4026C105.639 55.0632 105.837 54.6825 105.97 54.2689L104.067 53.6549C104.001 53.8577 103.911 54.0272 103.798 54.1717L105.374 55.4026ZM105.97 54.2689C106.106 53.849 106.168 53.4059 106.168 52.9477H104.168C104.168 53.2253 104.13 53.4583 104.067 53.6549L105.97 54.2689ZM106.168 52.9477C106.168 52.1622 105.962 51.4276 105.546 50.7685L103.855 51.8356C104.062 52.1643 104.168 52.5267 104.168 52.9477H106.168ZM105.546 50.7685C105.12 50.0928 104.506 49.583 103.757 49.2226L102.89 51.025C103.353 51.248 103.658 51.5237 103.855 51.8356L105.546 50.7685ZM103.757 49.2226C102.98 48.849 102.078 48.6863 101.091 48.6863V50.6863C101.867 50.6863 102.454 50.8153 102.89 51.025L103.757 49.2226ZM101.091 48.6863C100.102 48.6863 99.1993 48.8511 98.4213 49.2295L99.296 51.0281C99.7311 50.8165 100.316 50.6863 101.091 50.6863V48.6863ZM98.4213 49.2295C97.6687 49.5955 97.0555 50.1147 96.631 50.801L98.332 51.8529C98.5307 51.5316 98.8356 51.252 99.296 51.0281L98.4213 49.2295ZM96.631 50.801C96.2155 51.4729 96.0142 52.2239 96.0142 53.0272H98.0142C98.0142 52.571 98.1245 52.1886 98.332 51.8529L96.631 50.801ZM96.0142 53.0272C96.0142 53.7563 96.1708 54.4428 96.5145 55.0568L98.2597 54.08C98.1062 53.8057 98.0142 53.4648 98.0142 53.0272H96.0142ZM96.5157 55.059C96.8611 55.6726 97.3534 56.154 97.9735 56.4911L98.9285 54.7338C98.6339 54.5737 98.4168 54.3591 98.2585 54.0778L96.5157 55.059ZM97.9713 56.4899C98.6043 56.836 99.3172 56.9903 100.077 56.9903V54.9903C99.59 54.9903 99.2191 54.8927 98.9307 54.735L97.9713 56.4899ZM99.0982 55.7843L99.0186 56.1621L100.976 56.5741L101.055 56.1963L99.0982 55.7843ZM100.997 56.3681V53.3056H98.9972V56.3681H100.997ZM99.9972 54.3056H101.091V52.3056H99.9972V54.3056ZM100.091 53.3056V57.1835H102.091V53.3056H100.091ZM101.091 56.1835H99.9972V58.1835H101.091V56.1835ZM99.9972 56.1835C99.3038 56.1835 98.7532 56.0367 98.3098 55.7806L97.3095 57.5125C98.1057 57.9723 99.0134 58.1835 99.9972 58.1835V56.1835ZM98.3063 55.7786C97.8471 55.5158 97.4986 55.16 97.246 54.6964L95.4898 55.6535C95.9199 56.4427 96.5326 57.068 97.313 57.5145L98.3063 55.7786ZM97.2469 54.6981C96.9988 54.2409 96.8608 53.6931 96.8608 53.0272H94.8608C94.8608 53.9788 95.0608 54.8628 95.4889 55.6518L97.2469 54.6981ZM96.8608 53.0272C96.8608 52.2889 97.0324 51.6842 97.3465 51.1786L95.6478 50.123C95.1135 50.9829 94.8608 51.9625 94.8608 53.0272H96.8608ZM97.3454 51.1804C97.6617 50.6738 98.1162 50.2652 98.7449 49.9588L97.8688 48.1609C96.933 48.6169 96.1811 49.2689 95.6489 50.1212L97.3454 51.1804ZM98.7418 49.9603C99.3601 49.6616 100.133 49.4931 101.091 49.4931V47.4931C99.9012 47.4931 98.8179 47.7025 97.8719 48.1594L98.7418 49.9603ZM101.091 49.4931C101.808 49.4931 102.422 49.5891 102.946 49.7645L103.581 47.8681C102.819 47.6126 101.985 47.4931 101.091 47.4931V49.4931ZM102.943 49.7635C103.481 49.9456 103.912 50.1927 104.255 50.4932L105.573 48.9888C105.008 48.4939 104.339 48.1245 103.584 47.8691L102.943 49.7635ZM104.255 50.4932C104.602 50.797 104.862 51.1503 105.045 51.5596L106.872 50.7463C106.57 50.0685 106.134 49.4805 105.573 48.9888L104.255 50.4932ZM105.045 51.5596C105.224 51.9631 105.321 52.4211 105.321 52.9477H107.321C107.321 52.1684 107.176 51.4298 106.872 50.7463L105.045 51.5596ZM105.321 52.9477C105.321 53.3825 105.256 53.7702 105.134 54.1187L107.021 54.7794C107.224 54.1999 107.321 53.5867 107.321 52.9477H105.321ZM105.131 54.1268C105.008 54.4887 104.836 54.7996 104.619 55.068L106.174 56.326C106.547 55.8651 106.829 55.3442 107.024 54.7714L105.131 54.1268ZM104.613 55.0757C104.397 55.3484 104.138 55.5755 103.832 55.7598L104.863 57.4736C105.372 57.1673 105.813 56.7814 106.18 56.3182L104.613 55.0757ZM103.829 55.7617C103.533 55.9408 103.199 56.069 102.815 56.141L103.185 58.1066C103.789 57.993 104.353 57.7831 104.866 57.4717L103.829 55.7617ZM104 57.1238V55.8511H102V57.1238H104Z" fill="black" mask="url(#path-37-outside-17_1022_212)"/>
<defs>
<filter id="filter0_d_1022_212" x="0" y="0" width="118" height="118" filterUnits="userSpaceOnUse" color-interpolation-filters="sRGB">
<feFlood flood-opacity="0" result="BackgroundImageFix"/>
<feColorMatrix in="SourceAlpha" type="matrix" values="0 0 0 0 0 0 0 0 0 0 0 0 0 0 0 0 0 0 127 0" result="hardAlpha"/>
<feOffset dy="4"/>
<feGaussianBlur stdDeviation="2"/>
<feComposite in2="hardAlpha" operator="out"/>
<feColorMatrix type="matrix" values="0 0 0 0 0 0 0 0 0 0 0 0 0 0 0 0 0 0 0.25 0"/>
<feBlend mode="normal" in2="BackgroundImageFix" result="effect1_dropShadow_1022_212"/>
<feBlend mode="normal" in="SourceGraphic" in2="effect1_dropShadow_1022_212" result="shape"/>
</filter>
<linearGradient id="paint0_linear_1022_212" x1="60" y1="33" x2="60" y2="76" gradientUnits="userSpaceOnUse">
<stop stop-color="#1B1717"/>
<stop offset="1" stop-color="#AA9D9D"/>
</linearGradient>
</defs>
</svg>
